SplineFontDB: 3.2
FontName: Untitled1
FullName: Untitled1
FamilyName: Untitled1
Weight: Regular
Copyright: Copyright (c) 2024, Gabriel
UComments: "2024-10-29: Created with FontForge (http://fontforge.org)"
Version: 001.000
ItalicAngle: 0
UnderlinePosition: -100
UnderlineWidth: 50
Ascent: 800
Descent: 200
InvalidEm: 0
LayerCount: 2
Layer: 0 0 "Back" 1
Layer: 1 0 "Fore" 0
XUID: [1021 122 -783213542 25220]
OS2Version: 0
OS2_WeightWidthSlopeOnly: 0
OS2_UseTypoMetrics: 1
CreationTime: 1730232567
ModificationTime: 1730233778
OS2TypoAscent: 0
OS2TypoAOffset: 1
OS2TypoDescent: 0
OS2TypoDOffset: 1
OS2TypoLinegap: 0
OS2WinAscent: 0
OS2WinAOffset: 1
OS2WinDescent: 0
OS2WinDOffset: 1
HheadAscent: 0
HheadAOffset: 1
HheadDescent: 0
HheadDOffset: 1
OS2Vendor: 'PfEd'
DEI: 91125
Encoding: ISO8859-1
UnicodeInterp: none
NameList: AGL For New Fonts
DisplaySize: -48
AntiAlias: 1
FitToEm: 0
WinInfo: 64 16 4
BeginChars: 256 26

StartChar: A
Encoding: 65 65 0
Width: 650
Flags: HW
LayerCount: 2
Fore
SplineSet
46.392578125 770.102539062 m 2
 510.30859375 770.102539062 l 2
 536.009765625 770.102539062 556.701171875 749.411132812 556.701171875 723.709960938 c 2
 556.701171875 695.875 l 2
 556.701171875 670.174804688 536.009765625 649.483398438 510.30859375 649.483398438 c 2
 46.392578125 649.483398438 l 2
 20.69140625 649.483398438 0 670.174804688 0 695.875 c 2
 0 723.709960938 l 2
 0 749.411132812 20.69140625 770.102539062 46.392578125 770.102539062 c 2
46.392578125 640.205078125 m 2
 139.174804688 640.205078125 l 2
 164.875976562 640.205078125 185.567382812 619.514648438 185.567382812 593.813476562 c 2
 185.567382812 565.978515625 l 2
 185.567382812 540.27734375 164.875976562 519.587890625 139.174804688 519.587890625 c 2
 46.392578125 519.587890625 l 2
 20.69140625 519.587890625 0 540.27734375 0 565.978515625 c 2
 0 593.813476562 l 2
 0 619.514648438 20.69140625 640.205078125 46.392578125 640.205078125 c 2
417.526367188 640.205078125 m 2
 510.30859375 640.205078125 l 2
 536.009765625 640.205078125 556.701171875 619.514648438 556.701171875 593.813476562 c 2
 556.701171875 565.978515625 l 2
 556.701171875 540.27734375 536.009765625 519.587890625 510.30859375 519.587890625 c 2
 417.526367188 519.587890625 l 2
 391.825195312 519.587890625 371.133789062 540.27734375 371.133789062 565.978515625 c 2
 371.133789062 593.813476562 l 2
 371.133789062 619.514648438 391.825195312 640.205078125 417.526367188 640.205078125 c 2
46.392578125 510.30859375 m 2
 139.174804688 510.30859375 l 2
 164.875976562 510.30859375 185.567382812 489.6171875 185.567382812 463.916015625 c 2
 185.567382812 436.081054688 l 2
 185.567382812 410.379882812 164.875976562 389.690429688 139.174804688 389.690429688 c 2
 46.392578125 389.690429688 l 2
 20.69140625 389.690429688 0 410.379882812 0 436.081054688 c 2
 0 463.916015625 l 2
 0 489.6171875 20.69140625 510.30859375 46.392578125 510.30859375 c 2
417.526367188 510.30859375 m 2
 510.30859375 510.30859375 l 2
 535.9296875 510.30859375 556.701171875 489.537109375 556.701171875 463.916015625 c 2
 556.701171875 436.081054688 l 2
 556.701171875 410.459960938 535.9296875 389.690429688 510.30859375 389.690429688 c 2
 417.526367188 389.690429688 l 2
 391.905273438 389.690429688 371.133789062 410.459960938 371.133789062 436.081054688 c 2
 371.133789062 463.916015625 l 2
 371.133789062 489.537109375 391.905273438 510.30859375 417.526367188 510.30859375 c 2
46.392578125 380.411132812 m 2
 510.30859375 380.411132812 l 2
 536.009765625 380.411132812 556.701171875 359.721679688 556.701171875 334.020507812 c 2
 556.701171875 306.184570312 l 2
 556.701171875 280.483398438 536.009765625 259.793945312 510.30859375 259.793945312 c 2
 46.392578125 259.793945312 l 2
 20.69140625 259.793945312 0 280.483398438 0 306.184570312 c 2
 0 334.020507812 l 2
 0 359.721679688 20.69140625 380.411132812 46.392578125 380.411132812 c 2
46.392578125 250.514648438 m 2
 139.174804688 250.514648438 l 2
 164.875976562 250.514648438 185.567382812 229.825195312 185.567382812 204.124023438 c 2
 185.567382812 176.2890625 l 2
 185.567382812 150.587890625 164.875976562 129.896484375 139.174804688 129.896484375 c 2
 46.392578125 129.896484375 l 2
 20.69140625 129.896484375 0 150.587890625 0 176.2890625 c 2
 0 204.124023438 l 2
 0 229.825195312 20.69140625 250.514648438 46.392578125 250.514648438 c 2
417.526367188 250.514648438 m 2
 510.30859375 250.514648438 l 2
 536.009765625 250.514648438 556.701171875 229.825195312 556.701171875 204.124023438 c 2
 556.701171875 176.2890625 l 2
 556.701171875 150.587890625 536.009765625 129.896484375 510.30859375 129.896484375 c 2
 417.526367188 129.896484375 l 2
 391.825195312 129.896484375 371.133789062 150.587890625 371.133789062 176.2890625 c 2
 371.133789062 204.124023438 l 2
 371.133789062 229.825195312 391.825195312 250.514648438 417.526367188 250.514648438 c 2
46.392578125 120.6171875 m 2
 139.174804688 120.6171875 l 2
 164.875976562 120.6171875 185.567382812 99.927734375 185.567382812 74.2265625 c 2
 185.567382812 46.3916015625 l 2
 185.567382812 20.6904296875 164.875976562 0 139.174804688 0 c 2
 46.392578125 0 l 2
 20.69140625 0 0 20.6904296875 0 46.3916015625 c 2
 0 74.2265625 l 2
 0 99.927734375 20.69140625 120.6171875 46.392578125 120.6171875 c 2
417.526367188 120.6171875 m 2
 510.30859375 120.6171875 l 2
 536.009765625 120.6171875 556.701171875 99.927734375 556.701171875 74.2265625 c 2
 556.701171875 46.3916015625 l 2
 556.701171875 20.6904296875 536.009765625 0 510.30859375 0 c 2
 417.526367188 0 l 2
 391.825195312 0 371.133789062 20.6904296875 371.133789062 46.3916015625 c 2
 371.133789062 74.2265625 l 2
 371.133789062 99.927734375 391.825195312 120.6171875 417.526367188 120.6171875 c 2
EndSplineSet
EndChar

StartChar: B
Encoding: 66 66 1
Width: 661
Flags: HW
LayerCount: 2
Fore
SplineSet
46.392578125 770.103515625 m 2
 417.525390625 770.103515625 l 2
 443.2265625 770.103515625 463.91796875 749.412109375 463.91796875 723.7109375 c 2
 463.91796875 695.876953125 l 2
 463.91796875 670.17578125 443.2265625 649.484375 417.525390625 649.484375 c 2
 46.392578125 649.484375 l 2
 20.69140625 649.484375 0 670.17578125 0 695.876953125 c 2
 0 723.7109375 l 2
 0 749.412109375 20.69140625 770.103515625 46.392578125 770.103515625 c 2
46.392578125 640.20703125 m 2
 139.17578125 640.20703125 l 2
 164.876953125 640.20703125 185.56640625 619.515625 185.56640625 593.814453125 c 2
 185.56640625 565.98046875 l 2
 185.56640625 540.279296875 164.876953125 519.587890625 139.17578125 519.587890625 c 2
 46.392578125 519.587890625 l 2
 20.69140625 519.587890625 0 540.279296875 0 565.98046875 c 2
 0 593.814453125 l 2
 0 619.515625 20.69140625 640.20703125 46.392578125 640.20703125 c 2
417.525390625 640.20703125 m 2
 510.30859375 640.20703125 l 2
 536.009765625 640.20703125 556.701171875 619.515625 556.701171875 593.814453125 c 2
 556.701171875 565.98046875 l 2
 556.701171875 540.279296875 536.009765625 519.587890625 510.30859375 519.587890625 c 2
 417.525390625 519.587890625 l 2
 391.82421875 519.587890625 371.134765625 540.279296875 371.134765625 565.98046875 c 2
 371.134765625 593.814453125 l 2
 371.134765625 619.515625 391.82421875 640.20703125 417.525390625 640.20703125 c 2
46.392578125 510.310546875 m 2
 417.525390625 510.310546875 l 2
 443.2265625 510.310546875 463.91796875 489.619140625 463.91796875 463.91796875 c 2
 463.91796875 436.08203125 l 2
 463.91796875 410.380859375 443.2265625 389.69140625 417.525390625 389.69140625 c 2
 46.392578125 389.69140625 l 2
 20.69140625 389.69140625 0 410.380859375 0 436.08203125 c 2
 0 463.91796875 l 2
 0 489.619140625 20.69140625 510.310546875 46.392578125 510.310546875 c 2
46.392578125 380.412109375 m 2
 139.17578125 380.412109375 l 2
 164.876953125 380.412109375 185.56640625 359.72265625 185.56640625 334.021484375 c 2
 185.56640625 306.185546875 l 2
 185.56640625 280.484375 164.876953125 259.794921875 139.17578125 259.794921875 c 2
 46.392578125 259.794921875 l 2
 20.69140625 259.794921875 0 280.484375 0 306.185546875 c 2
 0 334.021484375 l 2
 0 359.72265625 20.69140625 380.412109375 46.392578125 380.412109375 c 2
417.525390625 380.412109375 m 2
 510.30859375 380.412109375 l 2
 536.009765625 380.412109375 556.701171875 359.72265625 556.701171875 334.021484375 c 2
 556.701171875 306.185546875 l 2
 556.701171875 280.484375 536.009765625 259.794921875 510.30859375 259.794921875 c 2
 417.525390625 259.794921875 l 2
 391.82421875 259.794921875 371.134765625 280.484375 371.134765625 306.185546875 c 2
 371.134765625 334.021484375 l 2
 371.134765625 359.72265625 391.82421875 380.412109375 417.525390625 380.412109375 c 2
46.392578125 250.515625 m 2
 139.17578125 250.515625 l 2
 164.876953125 250.515625 185.56640625 229.826171875 185.56640625 204.125 c 2
 185.56640625 176.2890625 l 2
 185.56640625 150.587890625 164.876953125 129.896484375 139.17578125 129.896484375 c 2
 46.392578125 129.896484375 l 2
 20.69140625 129.896484375 0 150.587890625 0 176.2890625 c 2
 0 204.125 l 2
 0 229.826171875 20.69140625 250.515625 46.392578125 250.515625 c 2
417.525390625 250.515625 m 2
 510.30859375 250.515625 l 2
 536.009765625 250.515625 556.701171875 229.826171875 556.701171875 204.125 c 2
 556.701171875 176.2890625 l 2
 556.701171875 150.587890625 536.009765625 129.896484375 510.30859375 129.896484375 c 2
 417.525390625 129.896484375 l 2
 391.82421875 129.896484375 371.134765625 150.587890625 371.134765625 176.2890625 c 2
 371.134765625 204.125 l 2
 371.134765625 229.826171875 391.82421875 250.515625 417.525390625 250.515625 c 2
46.392578125 120.619140625 m 2
 417.525390625 120.619140625 l 2
 443.2265625 120.619140625 463.91796875 99.927734375 463.91796875 74.2265625 c 2
 463.91796875 46.392578125 l 2
 463.91796875 20.69140625 443.2265625 0 417.525390625 0 c 2
 46.392578125 0 l 2
 20.69140625 0 0 20.69140625 0 46.392578125 c 2
 0 74.2265625 l 2
 0 99.927734375 20.69140625 120.619140625 46.392578125 120.619140625 c 2
EndSplineSet
EndChar

StartChar: C
Encoding: 67 67 2
Width: 640
Flags: HW
LayerCount: 2
Fore
SplineSet
46.390625 770.103515625 m 2
 510.30859375 770.103515625 l 2
 536.009765625 770.103515625 556.701171875 749.412109375 556.701171875 723.7109375 c 2
 556.701171875 695.876953125 l 2
 556.701171875 670.17578125 536.009765625 649.484375 510.30859375 649.484375 c 2
 46.390625 649.484375 l 2
 20.689453125 649.484375 0 670.17578125 0 695.876953125 c 2
 0 723.7109375 l 2
 0 749.412109375 20.689453125 770.103515625 46.390625 770.103515625 c 2
46.390625 640.20703125 m 2
 139.173828125 640.20703125 l 2
 164.875 640.20703125 185.56640625 619.515625 185.56640625 593.814453125 c 2
 185.56640625 565.98046875 l 2
 185.56640625 540.279296875 164.875 519.587890625 139.173828125 519.587890625 c 2
 46.390625 519.587890625 l 2
 20.689453125 519.587890625 0 540.279296875 0 565.98046875 c 2
 0 593.814453125 l 2
 0 619.515625 20.689453125 640.20703125 46.390625 640.20703125 c 2
46.390625 510.310546875 m 2
 139.173828125 510.310546875 l 2
 164.875 510.310546875 185.56640625 489.619140625 185.56640625 463.91796875 c 2
 185.56640625 436.08203125 l 2
 185.56640625 410.380859375 164.875 389.69140625 139.173828125 389.69140625 c 2
 46.390625 389.69140625 l 2
 20.689453125 389.69140625 0 410.380859375 0 436.08203125 c 2
 0 463.91796875 l 2
 0 489.619140625 20.689453125 510.310546875 46.390625 510.310546875 c 2
46.390625 380.412109375 m 2
 139.173828125 380.412109375 l 2
 164.875 380.412109375 185.56640625 359.72265625 185.56640625 334.021484375 c 2
 185.56640625 306.185546875 l 2
 185.56640625 280.484375 164.875 259.794921875 139.173828125 259.794921875 c 2
 46.390625 259.794921875 l 2
 20.689453125 259.794921875 0 280.484375 0 306.185546875 c 2
 0 334.021484375 l 2
 0 359.72265625 20.689453125 380.412109375 46.390625 380.412109375 c 2
46.390625 250.515625 m 2
 139.173828125 250.515625 l 2
 164.875 250.515625 185.56640625 229.826171875 185.56640625 204.125 c 2
 185.56640625 176.2890625 l 2
 185.56640625 150.587890625 164.875 129.896484375 139.173828125 129.896484375 c 2
 46.390625 129.896484375 l 2
 20.689453125 129.896484375 0 150.587890625 0 176.2890625 c 2
 0 204.125 l 2
 0 229.826171875 20.689453125 250.515625 46.390625 250.515625 c 2
46.390625 120.619140625 m 2
 510.30859375 120.619140625 l 2
 536.009765625 120.619140625 556.701171875 99.927734375 556.701171875 74.2265625 c 2
 556.701171875 46.392578125 l 2
 556.701171875 20.69140625 536.009765625 0 510.30859375 0 c 2
 46.390625 0 l 2
 20.689453125 0 0 20.69140625 0 46.392578125 c 2
 0 74.2265625 l 2
 0 99.927734375 20.689453125 120.619140625 46.390625 120.619140625 c 2
EndSplineSet
EndChar

StartChar: D
Encoding: 68 68 3
Width: 643
Flags: HW
LayerCount: 2
Fore
SplineSet
46.392578125 770.103515625 m 2
 417.525390625 770.103515625 l 2
 443.2265625 770.103515625 463.91796875 749.412109375 463.91796875 723.7109375 c 2
 463.91796875 695.876953125 l 2
 463.91796875 670.17578125 443.2265625 649.484375 417.525390625 649.484375 c 2
 46.392578125 649.484375 l 2
 20.69140625 649.484375 0 670.17578125 0 695.876953125 c 2
 0 723.7109375 l 2
 0 749.412109375 20.69140625 770.103515625 46.392578125 770.103515625 c 2
46.392578125 640.20703125 m 2
 139.17578125 640.20703125 l 2
 164.876953125 640.20703125 185.568359375 619.515625 185.568359375 593.814453125 c 2
 185.568359375 565.98046875 l 2
 185.568359375 540.279296875 164.876953125 519.587890625 139.17578125 519.587890625 c 2
 46.392578125 519.587890625 l 2
 20.69140625 519.587890625 0 540.279296875 0 565.98046875 c 2
 0 593.814453125 l 2
 0 619.515625 20.69140625 640.20703125 46.392578125 640.20703125 c 2
417.52734375 640.20703125 m 2
 510.310546875 640.20703125 l 2
 536.01171875 640.20703125 556.701171875 619.515625 556.701171875 593.814453125 c 2
 556.701171875 565.98046875 l 2
 556.701171875 540.279296875 536.01171875 519.587890625 510.310546875 519.587890625 c 2
 417.52734375 519.587890625 l 2
 391.826171875 519.587890625 371.134765625 540.279296875 371.134765625 565.98046875 c 2
 371.134765625 593.814453125 l 2
 371.134765625 619.515625 391.826171875 640.20703125 417.52734375 640.20703125 c 2
46.392578125 510.310546875 m 2
 139.17578125 510.310546875 l 2
 164.876953125 510.310546875 185.568359375 489.619140625 185.568359375 463.91796875 c 2
 185.568359375 436.08203125 l 2
 185.568359375 410.380859375 164.876953125 389.69140625 139.17578125 389.69140625 c 2
 46.392578125 389.69140625 l 2
 20.69140625 389.69140625 0 410.380859375 0 436.08203125 c 2
 0 463.91796875 l 2
 0 489.619140625 20.69140625 510.310546875 46.392578125 510.310546875 c 2
417.52734375 510.310546875 m 2
 510.310546875 510.310546875 l 2
 536.01171875 510.310546875 556.701171875 489.619140625 556.701171875 463.91796875 c 2
 556.701171875 436.08203125 l 2
 556.701171875 410.380859375 536.01171875 389.69140625 510.310546875 389.69140625 c 2
 417.52734375 389.69140625 l 2
 391.826171875 389.69140625 371.134765625 410.380859375 371.134765625 436.08203125 c 2
 371.134765625 463.91796875 l 2
 371.134765625 489.619140625 391.826171875 510.310546875 417.52734375 510.310546875 c 2
46.392578125 380.412109375 m 2
 139.17578125 380.412109375 l 2
 164.876953125 380.412109375 185.568359375 359.72265625 185.568359375 334.021484375 c 2
 185.568359375 306.185546875 l 2
 185.568359375 280.484375 164.876953125 259.794921875 139.17578125 259.794921875 c 2
 46.392578125 259.794921875 l 2
 20.69140625 259.794921875 0 280.484375 0 306.185546875 c 2
 0 334.021484375 l 2
 0 359.72265625 20.69140625 380.412109375 46.392578125 380.412109375 c 2
417.52734375 380.412109375 m 2
 510.310546875 380.412109375 l 2
 536.01171875 380.412109375 556.701171875 359.72265625 556.701171875 334.021484375 c 2
 556.701171875 306.185546875 l 2
 556.701171875 280.484375 536.01171875 259.794921875 510.310546875 259.794921875 c 2
 417.52734375 259.794921875 l 2
 391.826171875 259.794921875 371.134765625 280.484375 371.134765625 306.185546875 c 2
 371.134765625 334.021484375 l 2
 371.134765625 359.72265625 391.826171875 380.412109375 417.52734375 380.412109375 c 2
46.392578125 250.515625 m 2
 139.17578125 250.515625 l 2
 164.876953125 250.515625 185.568359375 229.826171875 185.568359375 204.125 c 2
 185.568359375 176.2890625 l 2
 185.568359375 150.587890625 164.876953125 129.896484375 139.17578125 129.896484375 c 2
 46.392578125 129.896484375 l 2
 20.69140625 129.896484375 0 150.587890625 0 176.2890625 c 2
 0 204.125 l 2
 0 229.826171875 20.69140625 250.515625 46.392578125 250.515625 c 2
417.52734375 250.515625 m 2
 510.310546875 250.515625 l 2
 536.01171875 250.515625 556.701171875 229.826171875 556.701171875 204.125 c 2
 556.701171875 176.2890625 l 2
 556.701171875 150.587890625 536.01171875 129.896484375 510.310546875 129.896484375 c 2
 417.52734375 129.896484375 l 2
 391.826171875 129.896484375 371.134765625 150.587890625 371.134765625 176.2890625 c 2
 371.134765625 204.125 l 2
 371.134765625 229.826171875 391.826171875 250.515625 417.52734375 250.515625 c 2
46.392578125 120.619140625 m 2
 417.525390625 120.619140625 l 2
 443.2265625 120.619140625 463.91796875 99.927734375 463.91796875 74.2265625 c 2
 463.91796875 46.392578125 l 2
 463.91796875 20.69140625 443.2265625 0 417.525390625 0 c 2
 46.392578125 0 l 2
 20.69140625 0 0 20.69140625 0 46.392578125 c 2
 0 74.2265625 l 2
 0 99.927734375 20.69140625 120.619140625 46.392578125 120.619140625 c 2
EndSplineSet
EndChar

StartChar: E
Encoding: 69 69 4
Width: 646
Flags: HW
LayerCount: 2
Fore
SplineSet
46.392578125 770.103515625 m 2
 510.310546875 770.103515625 l 2
 536.01171875 770.103515625 556.701171875 749.412109375 556.701171875 723.7109375 c 2
 556.701171875 695.876953125 l 2
 556.701171875 670.17578125 536.01171875 649.484375 510.310546875 649.484375 c 2
 46.392578125 649.484375 l 2
 20.69140625 649.484375 0 670.17578125 0 695.876953125 c 2
 0 723.7109375 l 2
 0 749.412109375 20.69140625 770.103515625 46.392578125 770.103515625 c 2
46.392578125 640.20703125 m 2
 139.17578125 640.20703125 l 2
 164.876953125 640.20703125 185.568359375 619.515625 185.568359375 593.814453125 c 2
 185.568359375 565.98046875 l 2
 185.568359375 540.279296875 164.876953125 519.587890625 139.17578125 519.587890625 c 2
 46.392578125 519.587890625 l 2
 20.69140625 519.587890625 0 540.279296875 0 565.98046875 c 2
 0 593.814453125 l 2
 0 619.515625 20.69140625 640.20703125 46.392578125 640.20703125 c 2
46.392578125 510.310546875 m 2
 306.185546875 510.310546875 l 2
 331.88671875 510.310546875 352.578125 489.619140625 352.578125 463.91796875 c 2
 352.578125 436.08203125 l 2
 352.578125 410.380859375 331.88671875 389.69140625 306.185546875 389.69140625 c 2
 46.392578125 389.69140625 l 2
 20.69140625 389.69140625 0 410.380859375 0 436.08203125 c 2
 0 463.91796875 l 2
 0 489.619140625 20.69140625 510.310546875 46.392578125 510.310546875 c 2
46.392578125 380.412109375 m 2
 139.17578125 380.412109375 l 2
 164.876953125 380.412109375 185.568359375 359.72265625 185.568359375 334.021484375 c 2
 185.568359375 306.185546875 l 2
 185.568359375 280.484375 164.876953125 259.794921875 139.17578125 259.794921875 c 2
 46.392578125 259.794921875 l 2
 20.69140625 259.794921875 0 280.484375 0 306.185546875 c 2
 0 334.021484375 l 2
 0 359.72265625 20.69140625 380.412109375 46.392578125 380.412109375 c 2
46.392578125 250.515625 m 2
 139.17578125 250.515625 l 2
 164.876953125 250.515625 185.568359375 229.826171875 185.568359375 204.125 c 2
 185.568359375 176.2890625 l 2
 185.568359375 150.587890625 164.876953125 129.896484375 139.17578125 129.896484375 c 2
 46.392578125 129.896484375 l 2
 20.69140625 129.896484375 0 150.587890625 0 176.2890625 c 2
 0 204.125 l 2
 0 229.826171875 20.69140625 250.515625 46.392578125 250.515625 c 2
46.392578125 120.619140625 m 2
 510.310546875 120.619140625 l 2
 536.01171875 120.619140625 556.701171875 99.927734375 556.701171875 74.2265625 c 2
 556.701171875 46.392578125 l 2
 556.701171875 20.69140625 536.01171875 0 510.310546875 0 c 2
 46.392578125 0 l 2
 20.69140625 0 0 20.69140625 0 46.392578125 c 2
 0 74.2265625 l 2
 0 99.927734375 20.69140625 120.619140625 46.392578125 120.619140625 c 2
EndSplineSet
EndChar

StartChar: F
Encoding: 70 70 5
Width: 644
Flags: HW
LayerCount: 2
Fore
SplineSet
46.390625 770.103515625 m 2
 510.30859375 770.103515625 l 2
 536.009765625 770.103515625 556.701171875 749.412109375 556.701171875 723.7109375 c 2
 556.701171875 695.876953125 l 2
 556.701171875 670.17578125 536.009765625 649.484375 510.30859375 649.484375 c 2
 46.390625 649.484375 l 2
 20.689453125 649.484375 0 670.17578125 0 695.876953125 c 2
 0 723.7109375 l 2
 0 749.412109375 20.689453125 770.103515625 46.390625 770.103515625 c 2
46.390625 640.20703125 m 2
 139.173828125 640.20703125 l 2
 164.875 640.20703125 185.56640625 619.515625 185.56640625 593.814453125 c 2
 185.56640625 565.98046875 l 2
 185.56640625 540.279296875 164.875 519.587890625 139.173828125 519.587890625 c 2
 46.390625 519.587890625 l 2
 20.689453125 519.587890625 0 540.279296875 0 565.98046875 c 2
 0 593.814453125 l 2
 0 619.515625 20.689453125 640.20703125 46.390625 640.20703125 c 2
46.390625 510.310546875 m 2
 306.185546875 510.310546875 l 2
 331.88671875 510.310546875 352.576171875 489.619140625 352.576171875 463.91796875 c 2
 352.576171875 436.08203125 l 2
 352.576171875 410.380859375 331.88671875 389.69140625 306.185546875 389.69140625 c 2
 46.390625 389.69140625 l 2
 20.689453125 389.69140625 0 410.380859375 0 436.08203125 c 2
 0 463.91796875 l 2
 0 489.619140625 20.689453125 510.310546875 46.390625 510.310546875 c 2
46.390625 380.412109375 m 2
 139.173828125 380.412109375 l 2
 164.875 380.412109375 185.56640625 359.72265625 185.56640625 334.021484375 c 2
 185.56640625 306.185546875 l 2
 185.56640625 280.484375 164.875 259.794921875 139.173828125 259.794921875 c 2
 46.390625 259.794921875 l 2
 20.689453125 259.794921875 0 280.484375 0 306.185546875 c 2
 0 334.021484375 l 2
 0 359.72265625 20.689453125 380.412109375 46.390625 380.412109375 c 2
46.390625 250.515625 m 2
 139.173828125 250.515625 l 2
 164.875 250.515625 185.56640625 229.826171875 185.56640625 204.125 c 2
 185.56640625 176.2890625 l 2
 185.56640625 150.587890625 164.875 129.896484375 139.173828125 129.896484375 c 2
 46.390625 129.896484375 l 2
 20.689453125 129.896484375 0 150.587890625 0 176.2890625 c 2
 0 204.125 l 2
 0 229.826171875 20.689453125 250.515625 46.390625 250.515625 c 2
46.390625 120.619140625 m 2
 139.173828125 120.619140625 l 2
 164.875 120.619140625 185.56640625 99.927734375 185.56640625 74.2265625 c 2
 185.56640625 46.392578125 l 2
 185.56640625 20.69140625 164.875 0 139.173828125 0 c 2
 46.390625 0 l 2
 20.689453125 0 0 20.69140625 0 46.392578125 c 2
 0 74.2265625 l 2
 0 99.927734375 20.689453125 120.619140625 46.390625 120.619140625 c 2
EndSplineSet
EndChar

StartChar: G
Encoding: 71 71 6
Width: 646
Flags: HW
LayerCount: 2
Fore
SplineSet
46.390625 770.103515625 m 2
 510.30859375 770.103515625 l 2
 536.009765625 770.103515625 556.701171875 749.412109375 556.701171875 723.7109375 c 2
 556.701171875 695.876953125 l 2
 556.701171875 670.17578125 536.009765625 649.484375 510.30859375 649.484375 c 2
 46.390625 649.484375 l 2
 20.689453125 649.484375 0 670.17578125 0 695.876953125 c 2
 0 723.7109375 l 2
 0 749.412109375 20.689453125 770.103515625 46.390625 770.103515625 c 2
46.390625 640.20703125 m 2
 139.173828125 640.20703125 l 2
 164.875 640.20703125 185.56640625 619.515625 185.56640625 593.814453125 c 2
 185.56640625 565.98046875 l 2
 185.56640625 540.279296875 164.875 519.587890625 139.173828125 519.587890625 c 2
 46.390625 519.587890625 l 2
 20.689453125 519.587890625 0 540.279296875 0 565.98046875 c 2
 0 593.814453125 l 2
 0 619.515625 20.689453125 640.20703125 46.390625 640.20703125 c 2
46.390625 510.310546875 m 2
 139.173828125 510.310546875 l 2
 164.875 510.310546875 185.56640625 489.619140625 185.56640625 463.91796875 c 2
 185.56640625 436.08203125 l 2
 185.56640625 410.380859375 164.875 389.69140625 139.173828125 389.69140625 c 2
 46.390625 389.69140625 l 2
 20.689453125 389.69140625 0 410.380859375 0 436.08203125 c 2
 0 463.91796875 l 2
 0 489.619140625 20.689453125 510.310546875 46.390625 510.310546875 c 2
46.390625 380.412109375 m 2
 139.173828125 380.412109375 l 2
 164.875 380.412109375 185.56640625 359.72265625 185.56640625 334.021484375 c 2
 185.56640625 306.185546875 l 2
 185.56640625 280.484375 164.875 259.794921875 139.173828125 259.794921875 c 2
 46.390625 259.794921875 l 2
 20.689453125 259.794921875 0 280.484375 0 306.185546875 c 2
 0 334.021484375 l 2
 0 359.72265625 20.689453125 380.412109375 46.390625 380.412109375 c 2
324.7421875 380.412109375 m 2
 510.30859375 380.412109375 l 2
 536.009765625 380.412109375 556.701171875 359.72265625 556.701171875 334.021484375 c 2
 556.701171875 306.185546875 l 2
 556.701171875 280.484375 536.009765625 259.794921875 510.30859375 259.794921875 c 2
 324.7421875 259.794921875 l 2
 299.041015625 259.794921875 278.349609375 280.484375 278.349609375 306.185546875 c 2
 278.349609375 334.021484375 l 2
 278.349609375 359.72265625 299.041015625 380.412109375 324.7421875 380.412109375 c 2
46.390625 250.515625 m 2
 139.173828125 250.515625 l 2
 164.875 250.515625 185.56640625 229.826171875 185.56640625 204.125 c 2
 185.56640625 176.2890625 l 2
 185.56640625 150.587890625 164.875 129.896484375 139.173828125 129.896484375 c 2
 46.390625 129.896484375 l 2
 20.689453125 129.896484375 0 150.587890625 0 176.2890625 c 2
 0 204.125 l 2
 0 229.826171875 20.689453125 250.515625 46.390625 250.515625 c 2
417.525390625 250.515625 m 2
 510.30859375 250.515625 l 2
 536.009765625 250.515625 556.701171875 229.826171875 556.701171875 204.125 c 2
 556.701171875 176.2890625 l 2
 556.701171875 150.587890625 536.009765625 129.896484375 510.30859375 129.896484375 c 2
 417.525390625 129.896484375 l 2
 391.82421875 129.896484375 371.1328125 150.587890625 371.1328125 176.2890625 c 2
 371.1328125 204.125 l 2
 371.1328125 229.826171875 391.82421875 250.515625 417.525390625 250.515625 c 2
46.390625 120.619140625 m 2
 510.30859375 120.619140625 l 2
 536.009765625 120.619140625 556.701171875 99.927734375 556.701171875 74.2265625 c 2
 556.701171875 46.392578125 l 2
 556.701171875 20.69140625 536.009765625 0 510.30859375 0 c 2
 46.390625 0 l 2
 20.689453125 0 0 20.69140625 0 46.392578125 c 2
 0 74.2265625 l 2
 0 99.927734375 20.689453125 120.619140625 46.390625 120.619140625 c 2
EndSplineSet
EndChar

StartChar: H
Encoding: 72 72 7
Width: 640
Flags: HW
LayerCount: 2
Fore
SplineSet
46.392578125 770.103515625 m 2
 139.17578125 770.103515625 l 2
 164.876953125 770.103515625 185.568359375 749.412109375 185.568359375 723.7109375 c 2
 185.568359375 695.876953125 l 2
 185.568359375 670.17578125 164.876953125 649.484375 139.17578125 649.484375 c 2
 46.392578125 649.484375 l 2
 20.69140625 649.484375 0 670.17578125 0 695.876953125 c 2
 0 723.7109375 l 2
 0 749.412109375 20.69140625 770.103515625 46.392578125 770.103515625 c 2
417.52734375 770.103515625 m 2
 510.310546875 770.103515625 l 2
 536.01171875 770.103515625 556.701171875 749.412109375 556.701171875 723.7109375 c 2
 556.701171875 695.876953125 l 2
 556.701171875 670.17578125 536.01171875 649.484375 510.310546875 649.484375 c 2
 417.52734375 649.484375 l 2
 391.826171875 649.484375 371.134765625 670.17578125 371.134765625 695.876953125 c 2
 371.134765625 723.7109375 l 2
 371.134765625 749.412109375 391.826171875 770.103515625 417.52734375 770.103515625 c 2
46.392578125 640.20703125 m 2
 139.17578125 640.20703125 l 2
 164.876953125 640.20703125 185.568359375 619.515625 185.568359375 593.814453125 c 2
 185.568359375 565.98046875 l 2
 185.568359375 540.279296875 164.876953125 519.587890625 139.17578125 519.587890625 c 2
 46.392578125 519.587890625 l 2
 20.69140625 519.587890625 0 540.279296875 0 565.98046875 c 2
 0 593.814453125 l 2
 0 619.515625 20.69140625 640.20703125 46.392578125 640.20703125 c 2
417.52734375 640.20703125 m 2
 510.310546875 640.20703125 l 2
 536.01171875 640.20703125 556.701171875 619.515625 556.701171875 593.814453125 c 2
 556.701171875 565.98046875 l 2
 556.701171875 540.279296875 536.01171875 519.587890625 510.310546875 519.587890625 c 2
 417.52734375 519.587890625 l 2
 391.826171875 519.587890625 371.134765625 540.279296875 371.134765625 565.98046875 c 2
 371.134765625 593.814453125 l 2
 371.134765625 619.515625 391.826171875 640.20703125 417.52734375 640.20703125 c 2
46.392578125 510.310546875 m 2
 139.17578125 510.310546875 l 2
 164.876953125 510.310546875 185.568359375 489.619140625 185.568359375 463.91796875 c 2
 185.568359375 436.08203125 l 2
 185.568359375 410.380859375 164.876953125 389.69140625 139.17578125 389.69140625 c 2
 46.392578125 389.69140625 l 2
 20.69140625 389.69140625 0 410.380859375 0 436.08203125 c 2
 0 463.91796875 l 2
 0 489.619140625 20.69140625 510.310546875 46.392578125 510.310546875 c 2
417.52734375 510.310546875 m 2
 510.310546875 510.310546875 l 2
 536.01171875 510.310546875 556.701171875 489.619140625 556.701171875 463.91796875 c 2
 556.701171875 436.08203125 l 2
 556.701171875 410.380859375 536.01171875 389.69140625 510.310546875 389.69140625 c 2
 417.52734375 389.69140625 l 2
 391.826171875 389.69140625 371.134765625 410.380859375 371.134765625 436.08203125 c 2
 371.134765625 463.91796875 l 2
 371.134765625 489.619140625 391.826171875 510.310546875 417.52734375 510.310546875 c 2
46.392578125 380.412109375 m 2
 510.310546875 380.412109375 l 2
 536.01171875 380.412109375 556.701171875 359.72265625 556.701171875 334.021484375 c 2
 556.701171875 306.185546875 l 2
 556.701171875 280.484375 536.01171875 259.794921875 510.310546875 259.794921875 c 2
 46.392578125 259.794921875 l 2
 20.69140625 259.794921875 0 280.484375 0 306.185546875 c 2
 0 334.021484375 l 2
 0 359.72265625 20.69140625 380.412109375 46.392578125 380.412109375 c 2
46.392578125 250.515625 m 2
 139.17578125 250.515625 l 2
 164.876953125 250.515625 185.568359375 229.826171875 185.568359375 204.125 c 2
 185.568359375 176.2890625 l 2
 185.568359375 150.587890625 164.876953125 129.896484375 139.17578125 129.896484375 c 2
 46.392578125 129.896484375 l 2
 20.69140625 129.896484375 0 150.587890625 0 176.2890625 c 2
 0 204.125 l 2
 0 229.826171875 20.69140625 250.515625 46.392578125 250.515625 c 2
417.52734375 250.515625 m 2
 510.310546875 250.515625 l 2
 536.01171875 250.515625 556.701171875 229.826171875 556.701171875 204.125 c 2
 556.701171875 176.2890625 l 2
 556.701171875 150.587890625 536.01171875 129.896484375 510.310546875 129.896484375 c 2
 417.52734375 129.896484375 l 2
 391.826171875 129.896484375 371.134765625 150.587890625 371.134765625 176.2890625 c 2
 371.134765625 204.125 l 2
 371.134765625 229.826171875 391.826171875 250.515625 417.52734375 250.515625 c 2
46.392578125 120.619140625 m 2
 139.17578125 120.619140625 l 2
 164.876953125 120.619140625 185.568359375 99.927734375 185.568359375 74.2265625 c 2
 185.568359375 46.392578125 l 2
 185.568359375 20.69140625 164.876953125 0 139.17578125 0 c 2
 46.392578125 0 l 2
 20.69140625 0 0 20.69140625 0 46.392578125 c 2
 0 74.2265625 l 2
 0 99.927734375 20.69140625 120.619140625 46.392578125 120.619140625 c 2
417.52734375 120.619140625 m 2
 510.310546875 120.619140625 l 2
 536.01171875 120.619140625 556.701171875 99.927734375 556.701171875 74.2265625 c 2
 556.701171875 46.392578125 l 2
 556.701171875 20.69140625 536.01171875 0 510.310546875 0 c 2
 417.52734375 0 l 2
 391.826171875 0 371.134765625 20.69140625 371.134765625 46.392578125 c 2
 371.134765625 74.2265625 l 2
 371.134765625 99.927734375 391.826171875 120.619140625 417.52734375 120.619140625 c 2
EndSplineSet
EndChar

StartChar: I
Encoding: 73 73 8
Width: 646
Flags: HW
LayerCount: 2
Fore
SplineSet
41.083984375 770.103515625 m 2
 505 770.103515625 l 2
 530.701171875 770.103515625 551.392578125 749.412109375 551.392578125 723.7109375 c 2
 551.392578125 695.876953125 l 2
 551.392578125 670.17578125 530.701171875 649.484375 505 649.484375 c 2
 41.083984375 649.484375 l 2
 15.3828125 649.484375 -5.30859375 670.17578125 -5.30859375 695.876953125 c 2
 -5.30859375 723.7109375 l 2
 -5.30859375 749.412109375 15.3828125 770.103515625 41.083984375 770.103515625 c 2
226.650390625 640.20703125 m 2
 319.43359375 640.20703125 l 2
 345.134765625 640.20703125 365.826171875 619.515625 365.826171875 593.814453125 c 2
 365.826171875 565.98046875 l 2
 365.826171875 540.279296875 345.134765625 519.587890625 319.43359375 519.587890625 c 2
 226.650390625 519.587890625 l 2
 200.94921875 519.587890625 180.259765625 540.279296875 180.259765625 565.98046875 c 2
 180.259765625 593.814453125 l 2
 180.259765625 619.515625 200.94921875 640.20703125 226.650390625 640.20703125 c 2
226.650390625 510.310546875 m 2
 319.43359375 510.310546875 l 2
 345.134765625 510.310546875 365.826171875 489.619140625 365.826171875 463.91796875 c 2
 365.826171875 436.08203125 l 2
 365.826171875 410.380859375 345.134765625 389.69140625 319.43359375 389.69140625 c 2
 226.650390625 389.69140625 l 2
 200.94921875 389.69140625 180.259765625 410.380859375 180.259765625 436.08203125 c 2
 180.259765625 463.91796875 l 2
 180.259765625 489.619140625 200.94921875 510.310546875 226.650390625 510.310546875 c 2
226.650390625 380.412109375 m 2
 319.43359375 380.412109375 l 2
 345.134765625 380.412109375 365.826171875 359.72265625 365.826171875 334.021484375 c 2
 365.826171875 306.185546875 l 2
 365.826171875 280.484375 345.134765625 259.794921875 319.43359375 259.794921875 c 2
 226.650390625 259.794921875 l 2
 200.94921875 259.794921875 180.259765625 280.484375 180.259765625 306.185546875 c 2
 180.259765625 334.021484375 l 2
 180.259765625 359.72265625 200.94921875 380.412109375 226.650390625 380.412109375 c 2
226.650390625 250.515625 m 2
 319.43359375 250.515625 l 2
 345.134765625 250.515625 365.826171875 229.826171875 365.826171875 204.125 c 2
 365.826171875 176.2890625 l 2
 365.826171875 150.587890625 345.134765625 129.896484375 319.43359375 129.896484375 c 2
 226.650390625 129.896484375 l 2
 200.94921875 129.896484375 180.259765625 150.587890625 180.259765625 176.2890625 c 2
 180.259765625 204.125 l 2
 180.259765625 229.826171875 200.94921875 250.515625 226.650390625 250.515625 c 2
41.083984375 120.619140625 m 2
 505 120.619140625 l 2
 530.701171875 120.619140625 551.392578125 99.927734375 551.392578125 74.2265625 c 2
 551.392578125 46.392578125 l 2
 551.392578125 20.69140625 530.701171875 0 505 0 c 2
 41.083984375 0 l 2
 15.3828125 0 -5.30859375 20.69140625 -5.30859375 46.392578125 c 2
 -5.30859375 74.2265625 l 2
 -5.30859375 99.927734375 15.3828125 120.619140625 41.083984375 120.619140625 c 2
EndSplineSet
EndChar

StartChar: J
Encoding: 74 74 9
Width: 643
Flags: HW
LayerCount: 2
Fore
SplineSet
417.525390625 770.103515625 m 2
 510.30859375 770.103515625 l 2
 536.009765625 770.103515625 556.701171875 749.412109375 556.701171875 723.7109375 c 2
 556.701171875 695.876953125 l 2
 556.701171875 670.17578125 536.009765625 649.484375 510.30859375 649.484375 c 2
 417.525390625 649.484375 l 2
 391.82421875 649.484375 371.134765625 670.17578125 371.134765625 695.876953125 c 2
 371.134765625 723.7109375 l 2
 371.134765625 749.412109375 391.82421875 770.103515625 417.525390625 770.103515625 c 2
417.525390625 640.20703125 m 2
 510.30859375 640.20703125 l 2
 536.009765625 640.20703125 556.701171875 619.515625 556.701171875 593.814453125 c 2
 556.701171875 565.98046875 l 2
 556.701171875 540.279296875 536.009765625 519.587890625 510.30859375 519.587890625 c 2
 417.525390625 519.587890625 l 2
 391.82421875 519.587890625 371.134765625 540.279296875 371.134765625 565.98046875 c 2
 371.134765625 593.814453125 l 2
 371.134765625 619.515625 391.82421875 640.20703125 417.525390625 640.20703125 c 2
417.525390625 510.310546875 m 2
 510.30859375 510.310546875 l 2
 536.009765625 510.310546875 556.701171875 489.619140625 556.701171875 463.91796875 c 2
 556.701171875 436.08203125 l 2
 556.701171875 410.380859375 536.009765625 389.69140625 510.30859375 389.69140625 c 2
 417.525390625 389.69140625 l 2
 391.82421875 389.69140625 371.134765625 410.380859375 371.134765625 436.08203125 c 2
 371.134765625 463.91796875 l 2
 371.134765625 489.619140625 391.82421875 510.310546875 417.525390625 510.310546875 c 2
417.525390625 380.412109375 m 2
 510.30859375 380.412109375 l 2
 536.009765625 380.412109375 556.701171875 359.72265625 556.701171875 334.021484375 c 2
 556.701171875 306.185546875 l 2
 556.701171875 280.484375 536.009765625 259.794921875 510.30859375 259.794921875 c 2
 417.525390625 259.794921875 l 2
 391.82421875 259.794921875 371.134765625 280.484375 371.134765625 306.185546875 c 2
 371.134765625 334.021484375 l 2
 371.134765625 359.72265625 391.82421875 380.412109375 417.525390625 380.412109375 c 2
46.392578125 250.515625 m 2
 139.17578125 250.515625 l 2
 164.876953125 250.515625 185.56640625 229.826171875 185.56640625 204.125 c 2
 185.56640625 176.2890625 l 2
 185.56640625 150.587890625 164.876953125 129.896484375 139.17578125 129.896484375 c 2
 46.392578125 129.896484375 l 2
 20.69140625 129.896484375 0 150.587890625 0 176.2890625 c 2
 0 204.125 l 2
 0 229.826171875 20.69140625 250.515625 46.392578125 250.515625 c 2
417.525390625 250.515625 m 2
 510.30859375 250.515625 l 2
 536.009765625 250.515625 556.701171875 229.826171875 556.701171875 204.125 c 2
 556.701171875 176.2890625 l 2
 556.701171875 150.587890625 536.009765625 129.896484375 510.30859375 129.896484375 c 2
 417.525390625 129.896484375 l 2
 391.82421875 129.896484375 371.134765625 150.587890625 371.134765625 176.2890625 c 2
 371.134765625 204.125 l 2
 371.134765625 229.826171875 391.82421875 250.515625 417.525390625 250.515625 c 2
46.392578125 120.619140625 m 2
 510.30859375 120.619140625 l 2
 536.009765625 120.619140625 556.701171875 99.927734375 556.701171875 74.2265625 c 2
 556.701171875 46.392578125 l 2
 556.701171875 20.69140625 536.009765625 0 510.30859375 0 c 2
 46.392578125 0 l 2
 20.69140625 0 0 20.69140625 0 46.392578125 c 2
 0 74.2265625 l 2
 0 99.927734375 20.69140625 120.619140625 46.392578125 120.619140625 c 2
EndSplineSet
EndChar

StartChar: K
Encoding: 75 75 10
Width: 643
Flags: HW
LayerCount: 2
Fore
SplineSet
46.390625 770.103515625 m 2
 139.173828125 770.103515625 l 2
 164.875 770.103515625 185.56640625 749.412109375 185.56640625 723.7109375 c 2
 185.56640625 695.876953125 l 2
 185.56640625 670.17578125 164.875 649.484375 139.173828125 649.484375 c 2
 46.390625 649.484375 l 2
 20.689453125 649.484375 0 670.17578125 0 695.876953125 c 2
 0 723.7109375 l 2
 0 749.412109375 20.689453125 770.103515625 46.390625 770.103515625 c 2
46.390625 640.20703125 m 2
 139.173828125 640.20703125 l 2
 164.875 640.20703125 185.56640625 619.515625 185.56640625 593.814453125 c 2
 185.56640625 565.98046875 l 2
 185.56640625 540.279296875 164.875 519.587890625 139.173828125 519.587890625 c 2
 46.390625 519.587890625 l 2
 20.689453125 519.587890625 0 540.279296875 0 565.98046875 c 2
 0 593.814453125 l 2
 0 619.515625 20.689453125 640.20703125 46.390625 640.20703125 c 2
417.525390625 640.20703125 m 2
 510.30859375 640.20703125 l 2
 536.009765625 640.20703125 556.701171875 619.515625 556.701171875 593.814453125 c 2
 556.701171875 565.98046875 l 2
 556.701171875 540.279296875 536.009765625 519.587890625 510.30859375 519.587890625 c 2
 417.525390625 519.587890625 l 2
 391.82421875 519.587890625 371.1328125 540.279296875 371.1328125 565.98046875 c 2
 371.1328125 593.814453125 l 2
 371.1328125 619.515625 391.82421875 640.20703125 417.525390625 640.20703125 c 2
46.390625 510.310546875 m 2
 139.173828125 510.310546875 l 2
 164.875 510.310546875 185.56640625 489.619140625 185.56640625 463.91796875 c 2
 185.56640625 436.08203125 l 2
 185.56640625 410.380859375 164.875 389.69140625 139.173828125 389.69140625 c 2
 46.390625 389.69140625 l 2
 20.689453125 389.69140625 0 410.380859375 0 436.08203125 c 2
 0 463.91796875 l 2
 0 489.619140625 20.689453125 510.310546875 46.390625 510.310546875 c 2
324.7421875 510.310546875 m 2
 417.525390625 510.310546875 l 2
 443.2265625 510.310546875 463.916015625 489.619140625 463.916015625 463.91796875 c 2
 463.916015625 436.08203125 l 2
 463.916015625 410.380859375 443.2265625 389.69140625 417.525390625 389.69140625 c 2
 324.7421875 389.69140625 l 2
 299.041015625 389.69140625 278.349609375 410.380859375 278.349609375 436.08203125 c 2
 278.349609375 463.91796875 l 2
 278.349609375 489.619140625 299.041015625 510.310546875 324.7421875 510.310546875 c 2
46.390625 380.412109375 m 2
 324.7421875 380.412109375 l 2
 350.443359375 380.412109375 371.1328125 359.72265625 371.1328125 334.021484375 c 2
 371.1328125 306.185546875 l 2
 371.1328125 280.484375 350.443359375 259.794921875 324.7421875 259.794921875 c 2
 46.390625 259.794921875 l 2
 20.689453125 259.794921875 0 280.484375 0 306.185546875 c 2
 0 334.021484375 l 2
 0 359.72265625 20.689453125 380.412109375 46.390625 380.412109375 c 2
46.390625 250.515625 m 2
 139.173828125 250.515625 l 2
 164.875 250.515625 185.56640625 229.826171875 185.56640625 204.125 c 2
 185.56640625 176.2890625 l 2
 185.56640625 150.587890625 164.875 129.896484375 139.173828125 129.896484375 c 2
 46.390625 129.896484375 l 2
 20.689453125 129.896484375 0 150.587890625 0 176.2890625 c 2
 0 204.125 l 2
 0 229.826171875 20.689453125 250.515625 46.390625 250.515625 c 2
324.7421875 250.515625 m 2
 417.525390625 250.515625 l 2
 443.2265625 250.515625 463.916015625 229.826171875 463.916015625 204.125 c 2
 463.916015625 176.2890625 l 2
 463.916015625 150.587890625 443.2265625 129.896484375 417.525390625 129.896484375 c 2
 324.7421875 129.896484375 l 2
 299.041015625 129.896484375 278.349609375 150.587890625 278.349609375 176.2890625 c 2
 278.349609375 204.125 l 2
 278.349609375 229.826171875 299.041015625 250.515625 324.7421875 250.515625 c 2
46.390625 120.619140625 m 2
 139.173828125 120.619140625 l 2
 164.875 120.619140625 185.56640625 99.927734375 185.56640625 74.2265625 c 2
 185.56640625 46.392578125 l 2
 185.56640625 20.69140625 164.875 0 139.173828125 0 c 2
 46.390625 0 l 2
 20.689453125 0 0 20.69140625 0 46.392578125 c 2
 0 74.2265625 l 2
 0 99.927734375 20.689453125 120.619140625 46.390625 120.619140625 c 2
417.525390625 120.619140625 m 2
 510.30859375 120.619140625 l 2
 536.009765625 120.619140625 556.701171875 99.927734375 556.701171875 74.2265625 c 2
 556.701171875 46.392578125 l 2
 556.701171875 20.69140625 536.009765625 0 510.30859375 0 c 2
 417.525390625 0 l 2
 391.82421875 0 371.1328125 20.69140625 371.1328125 46.392578125 c 2
 371.1328125 74.2265625 l 2
 371.1328125 99.927734375 391.82421875 120.619140625 417.525390625 120.619140625 c 2
EndSplineSet
EndChar

StartChar: L
Encoding: 76 76 11
Width: 643
Flags: HW
LayerCount: 2
Fore
SplineSet
46.392578125 770.103515625 m 2
 139.17578125 770.103515625 l 2
 164.876953125 770.103515625 185.568359375 749.412109375 185.568359375 723.7109375 c 2
 185.568359375 695.876953125 l 2
 185.568359375 670.17578125 164.876953125 649.484375 139.17578125 649.484375 c 2
 46.392578125 649.484375 l 2
 20.69140625 649.484375 0 670.17578125 0 695.876953125 c 2
 0 723.7109375 l 2
 0 749.412109375 20.69140625 770.103515625 46.392578125 770.103515625 c 2
46.392578125 640.20703125 m 2
 139.17578125 640.20703125 l 2
 164.876953125 640.20703125 185.568359375 619.515625 185.568359375 593.814453125 c 2
 185.568359375 565.98046875 l 2
 185.568359375 540.279296875 164.876953125 519.587890625 139.17578125 519.587890625 c 2
 46.392578125 519.587890625 l 2
 20.69140625 519.587890625 0 540.279296875 0 565.98046875 c 2
 0 593.814453125 l 2
 0 619.515625 20.69140625 640.20703125 46.392578125 640.20703125 c 2
46.392578125 510.310546875 m 2
 139.17578125 510.310546875 l 2
 164.876953125 510.310546875 185.568359375 489.619140625 185.568359375 463.91796875 c 2
 185.568359375 436.08203125 l 2
 185.568359375 410.380859375 164.876953125 389.69140625 139.17578125 389.69140625 c 2
 46.392578125 389.69140625 l 2
 20.69140625 389.69140625 0 410.380859375 0 436.08203125 c 2
 0 463.91796875 l 2
 0 489.619140625 20.69140625 510.310546875 46.392578125 510.310546875 c 2
46.392578125 380.412109375 m 2
 139.17578125 380.412109375 l 2
 164.876953125 380.412109375 185.568359375 359.72265625 185.568359375 334.021484375 c 2
 185.568359375 306.185546875 l 2
 185.568359375 280.484375 164.876953125 259.794921875 139.17578125 259.794921875 c 2
 46.392578125 259.794921875 l 2
 20.69140625 259.794921875 0 280.484375 0 306.185546875 c 2
 0 334.021484375 l 2
 0 359.72265625 20.69140625 380.412109375 46.392578125 380.412109375 c 2
46.392578125 250.515625 m 2
 139.17578125 250.515625 l 2
 164.876953125 250.515625 185.568359375 229.826171875 185.568359375 204.125 c 2
 185.568359375 176.2890625 l 2
 185.568359375 150.587890625 164.876953125 129.896484375 139.17578125 129.896484375 c 2
 46.392578125 129.896484375 l 2
 20.69140625 129.896484375 0 150.587890625 0 176.2890625 c 2
 0 204.125 l 2
 0 229.826171875 20.69140625 250.515625 46.392578125 250.515625 c 2
46.392578125 120.619140625 m 2
 510.310546875 120.619140625 l 2
 536.01171875 120.619140625 556.701171875 99.927734375 556.701171875 74.2265625 c 2
 556.701171875 46.392578125 l 2
 556.701171875 20.69140625 536.01171875 0 510.310546875 0 c 2
 46.392578125 0 l 2
 20.69140625 0 0 20.69140625 0 46.392578125 c 2
 0 74.2265625 l 2
 0 99.927734375 20.69140625 120.619140625 46.392578125 120.619140625 c 2
EndSplineSet
EndChar

StartChar: M
Encoding: 77 77 12
Width: 718
Flags: HW
LayerCount: 2
Fore
SplineSet
46.392578125 770.103515625 m 2
 139.17578125 770.103515625 l 2
 164.876953125 770.103515625 185.568359375 749.412109375 185.568359375 723.7109375 c 2
 185.568359375 695.876953125 l 2
 185.568359375 670.17578125 164.876953125 649.484375 139.17578125 649.484375 c 2
 46.392578125 649.484375 l 2
 20.69140625 649.484375 0 670.17578125 0 695.876953125 c 2
 0 723.7109375 l 2
 0 749.412109375 20.69140625 770.103515625 46.392578125 770.103515625 c 2
482.474609375 770.103515625 m 2
 575.2578125 770.103515625 l 2
 600.958984375 770.103515625 621.650390625 749.412109375 621.650390625 723.7109375 c 2
 621.650390625 695.876953125 l 2
 621.650390625 670.17578125 600.958984375 649.484375 575.2578125 649.484375 c 2
 482.474609375 649.484375 l 2
 456.7734375 649.484375 436.08203125 670.17578125 436.08203125 695.876953125 c 2
 436.08203125 723.7109375 l 2
 436.08203125 749.412109375 456.7734375 770.103515625 482.474609375 770.103515625 c 2
46.392578125 640.20703125 m 2
 231.958984375 640.20703125 l 2
 257.66015625 640.20703125 278.3515625 619.515625 278.3515625 593.814453125 c 2
 278.3515625 565.98046875 l 2
 278.3515625 540.279296875 257.66015625 519.587890625 231.958984375 519.587890625 c 2
 46.392578125 519.587890625 l 2
 20.69140625 519.587890625 0 540.279296875 0 565.98046875 c 2
 0 593.814453125 l 2
 0 619.515625 20.69140625 640.20703125 46.392578125 640.20703125 c 2
380.412109375 640.20703125 m 2
 575.2578125 640.20703125 l 2
 600.958984375 640.20703125 621.650390625 619.515625 621.650390625 593.814453125 c 2
 621.650390625 565.98046875 l 2
 621.650390625 540.279296875 600.958984375 519.587890625 575.2578125 519.587890625 c 2
 380.412109375 519.587890625 l 2
 354.7109375 519.587890625 334.021484375 540.279296875 334.021484375 565.98046875 c 2
 334.021484375 593.814453125 l 2
 334.021484375 619.515625 354.7109375 640.20703125 380.412109375 640.20703125 c 2
259.794921875 519.587890625 m 2
 352.578125 519.587890625 l 2
 378.279296875 519.587890625 398.96875 498.8984375 398.96875 473.197265625 c 2
 398.96875 445.361328125 l 2
 398.96875 419.66015625 378.279296875 398.96875 352.578125 398.96875 c 2
 259.794921875 398.96875 l 2
 234.09375 398.96875 213.40234375 419.66015625 213.40234375 445.361328125 c 2
 213.40234375 473.197265625 l 2
 213.40234375 498.8984375 234.09375 519.587890625 259.794921875 519.587890625 c 2
46.392578125 510.310546875 m 2
 139.17578125 510.310546875 l 2
 164.876953125 510.310546875 185.568359375 489.619140625 185.568359375 463.91796875 c 2
 185.568359375 436.08203125 l 2
 185.568359375 410.380859375 164.876953125 389.69140625 139.17578125 389.69140625 c 2
 46.392578125 389.69140625 l 2
 20.69140625 389.69140625 0 410.380859375 0 436.08203125 c 2
 0 463.91796875 l 2
 0 489.619140625 20.69140625 510.310546875 46.392578125 510.310546875 c 2
482.474609375 510.310546875 m 2
 575.2578125 510.310546875 l 2
 600.958984375 510.310546875 621.650390625 489.619140625 621.650390625 463.91796875 c 2
 621.650390625 436.08203125 l 2
 621.650390625 410.380859375 600.958984375 389.69140625 575.2578125 389.69140625 c 2
 482.474609375 389.69140625 l 2
 456.7734375 389.69140625 436.08203125 410.380859375 436.08203125 436.08203125 c 2
 436.08203125 463.91796875 l 2
 436.08203125 489.619140625 456.7734375 510.310546875 482.474609375 510.310546875 c 2
46.392578125 380.412109375 m 2
 139.17578125 380.412109375 l 2
 164.876953125 380.412109375 185.568359375 359.72265625 185.568359375 334.021484375 c 2
 185.568359375 306.185546875 l 2
 185.568359375 280.484375 164.876953125 259.794921875 139.17578125 259.794921875 c 2
 46.392578125 259.794921875 l 2
 20.69140625 259.794921875 0 280.484375 0 306.185546875 c 2
 0 334.021484375 l 2
 0 359.72265625 20.69140625 380.412109375 46.392578125 380.412109375 c 2
482.474609375 380.412109375 m 2
 575.2578125 380.412109375 l 2
 600.958984375 380.412109375 621.650390625 359.72265625 621.650390625 334.021484375 c 2
 621.650390625 306.185546875 l 2
 621.650390625 280.484375 600.958984375 259.794921875 575.2578125 259.794921875 c 2
 482.474609375 259.794921875 l 2
 456.7734375 259.794921875 436.08203125 280.484375 436.08203125 306.185546875 c 2
 436.08203125 334.021484375 l 2
 436.08203125 359.72265625 456.7734375 380.412109375 482.474609375 380.412109375 c 2
46.392578125 250.515625 m 2
 139.17578125 250.515625 l 2
 164.876953125 250.515625 185.568359375 229.826171875 185.568359375 204.125 c 2
 185.568359375 176.2890625 l 2
 185.568359375 150.587890625 164.876953125 129.896484375 139.17578125 129.896484375 c 2
 46.392578125 129.896484375 l 2
 20.69140625 129.896484375 0 150.587890625 0 176.2890625 c 2
 0 204.125 l 2
 0 229.826171875 20.69140625 250.515625 46.392578125 250.515625 c 2
482.474609375 250.515625 m 2
 575.2578125 250.515625 l 2
 600.958984375 250.515625 621.650390625 229.826171875 621.650390625 204.125 c 2
 621.650390625 176.2890625 l 2
 621.650390625 150.587890625 600.958984375 129.896484375 575.2578125 129.896484375 c 2
 482.474609375 129.896484375 l 2
 456.7734375 129.896484375 436.08203125 150.587890625 436.08203125 176.2890625 c 2
 436.08203125 204.125 l 2
 436.08203125 229.826171875 456.7734375 250.515625 482.474609375 250.515625 c 2
46.392578125 120.619140625 m 2
 139.17578125 120.619140625 l 2
 164.876953125 120.619140625 185.568359375 99.927734375 185.568359375 74.2265625 c 2
 185.568359375 46.392578125 l 2
 185.568359375 20.69140625 164.876953125 0 139.17578125 0 c 2
 46.392578125 0 l 2
 20.69140625 0 0 20.69140625 0 46.392578125 c 2
 0 74.2265625 l 2
 0 99.927734375 20.69140625 120.619140625 46.392578125 120.619140625 c 2
482.474609375 120.619140625 m 2
 575.2578125 120.619140625 l 2
 600.958984375 120.619140625 621.650390625 99.927734375 621.650390625 74.2265625 c 2
 621.650390625 46.392578125 l 2
 621.650390625 20.69140625 600.958984375 0 575.2578125 0 c 2
 482.474609375 0 l 2
 456.7734375 0 436.08203125 20.69140625 436.08203125 46.392578125 c 2
 436.08203125 74.2265625 l 2
 436.08203125 99.927734375 456.7734375 120.619140625 482.474609375 120.619140625 c 2
EndSplineSet
EndChar

StartChar: N
Encoding: 78 78 13
Width: 640
Flags: HW
LayerCount: 2
Fore
SplineSet
46.390625 770.103515625 m 2
 139.173828125 770.103515625 l 2
 164.875 770.103515625 185.56640625 749.412109375 185.56640625 723.7109375 c 2
 185.56640625 695.876953125 l 2
 185.56640625 670.17578125 164.875 649.484375 139.173828125 649.484375 c 2
 46.390625 649.484375 l 2
 20.689453125 649.484375 0 670.17578125 0 695.876953125 c 2
 0 723.7109375 l 2
 0 749.412109375 20.689453125 770.103515625 46.390625 770.103515625 c 2
417.525390625 770.103515625 m 2
 510.30859375 770.103515625 l 2
 536.009765625 770.103515625 556.701171875 749.412109375 556.701171875 723.7109375 c 2
 556.701171875 695.876953125 l 2
 556.701171875 670.17578125 536.009765625 649.484375 510.30859375 649.484375 c 2
 417.525390625 649.484375 l 2
 391.82421875 649.484375 371.1328125 670.17578125 371.1328125 695.876953125 c 2
 371.1328125 723.7109375 l 2
 371.1328125 749.412109375 391.82421875 770.103515625 417.525390625 770.103515625 c 2
46.390625 640.20703125 m 2
 213.400390625 640.20703125 l 2
 239.1015625 640.20703125 259.79296875 619.515625 259.79296875 593.814453125 c 2
 259.79296875 565.98046875 l 2
 259.79296875 540.279296875 239.1015625 519.587890625 213.400390625 519.587890625 c 2
 46.390625 519.587890625 l 2
 20.689453125 519.587890625 0 540.279296875 0 565.98046875 c 2
 0 593.814453125 l 2
 0 619.515625 20.689453125 640.20703125 46.390625 640.20703125 c 2
417.525390625 640.20703125 m 2
 510.30859375 640.20703125 l 2
 536.009765625 640.20703125 556.701171875 619.515625 556.701171875 593.814453125 c 2
 556.701171875 565.98046875 l 2
 556.701171875 540.279296875 536.009765625 519.587890625 510.30859375 519.587890625 c 2
 417.525390625 519.587890625 l 2
 391.82421875 519.587890625 371.1328125 540.279296875 371.1328125 565.98046875 c 2
 371.1328125 593.814453125 l 2
 371.1328125 619.515625 391.82421875 640.20703125 417.525390625 640.20703125 c 2
46.390625 510.310546875 m 2
 139.173828125 510.310546875 l 1
 269.072265625 510.310546875 l 2
 294.7734375 510.310546875 315.462890625 489.619140625 315.462890625 463.91796875 c 2
 315.462890625 436.08203125 l 2
 315.462890625 410.380859375 294.7734375 389.69140625 269.072265625 389.69140625 c 2
 139.173828125 389.69140625 l 1
 46.390625 389.69140625 l 2
 20.689453125 389.69140625 0 410.380859375 0 436.08203125 c 2
 0 463.91796875 l 2
 0 489.619140625 20.689453125 510.310546875 46.390625 510.310546875 c 2
417.525390625 510.310546875 m 2
 510.30859375 510.310546875 l 2
 536.009765625 510.310546875 556.701171875 489.619140625 556.701171875 463.91796875 c 2
 556.701171875 436.08203125 l 2
 556.701171875 410.380859375 536.009765625 389.69140625 510.30859375 389.69140625 c 2
 417.525390625 389.69140625 l 2
 391.82421875 389.69140625 371.1328125 410.380859375 371.1328125 436.08203125 c 2
 371.1328125 463.91796875 l 2
 371.1328125 489.619140625 391.82421875 510.310546875 417.525390625 510.310546875 c 2
46.390625 380.412109375 m 2
 139.173828125 380.412109375 l 2
 164.875 380.412109375 185.56640625 359.72265625 185.56640625 334.021484375 c 2
 185.56640625 306.185546875 l 2
 185.56640625 280.484375 164.875 259.794921875 139.173828125 259.794921875 c 2
 46.390625 259.794921875 l 2
 20.689453125 259.794921875 0 280.484375 0 306.185546875 c 2
 0 334.021484375 l 2
 0 359.72265625 20.689453125 380.412109375 46.390625 380.412109375 c 2
287.62890625 380.412109375 m 2
 510.30859375 380.412109375 l 2
 536.009765625 380.412109375 556.701171875 359.72265625 556.701171875 334.021484375 c 2
 556.701171875 306.185546875 l 2
 556.701171875 280.484375 536.009765625 259.794921875 510.30859375 259.794921875 c 2
 287.62890625 259.794921875 l 2
 261.927734375 259.794921875 241.236328125 280.484375 241.236328125 306.185546875 c 2
 241.236328125 334.021484375 l 2
 241.236328125 359.72265625 261.927734375 380.412109375 287.62890625 380.412109375 c 2
46.390625 250.515625 m 2
 139.173828125 250.515625 l 2
 164.875 250.515625 185.56640625 229.826171875 185.56640625 204.125 c 2
 185.56640625 176.2890625 l 2
 185.56640625 150.587890625 164.875 129.896484375 139.173828125 129.896484375 c 2
 46.390625 129.896484375 l 2
 20.689453125 129.896484375 0 150.587890625 0 176.2890625 c 2
 0 204.125 l 2
 0 229.826171875 20.689453125 250.515625 46.390625 250.515625 c 2
343.298828125 250.515625 m 2
 510.30859375 250.515625 l 2
 536.009765625 250.515625 556.701171875 229.826171875 556.701171875 204.125 c 2
 556.701171875 176.2890625 l 2
 556.701171875 150.587890625 536.009765625 129.896484375 510.30859375 129.896484375 c 2
 343.298828125 129.896484375 l 2
 317.59765625 129.896484375 296.90625 150.587890625 296.90625 176.2890625 c 2
 296.90625 204.125 l 2
 296.90625 229.826171875 317.59765625 250.515625 343.298828125 250.515625 c 2
46.390625 120.619140625 m 2
 139.173828125 120.619140625 l 2
 164.875 120.619140625 185.56640625 99.927734375 185.56640625 74.2265625 c 2
 185.56640625 46.392578125 l 2
 185.56640625 20.69140625 164.875 0 139.173828125 0 c 2
 46.390625 0 l 2
 20.689453125 0 0 20.69140625 0 46.392578125 c 2
 0 74.2265625 l 2
 0 99.927734375 20.689453125 120.619140625 46.390625 120.619140625 c 2
417.525390625 120.619140625 m 2
 510.30859375 120.619140625 l 2
 536.009765625 120.619140625 556.701171875 99.927734375 556.701171875 74.2265625 c 2
 556.701171875 46.392578125 l 2
 556.701171875 20.69140625 536.009765625 0 510.30859375 0 c 2
 417.525390625 0 l 2
 391.82421875 0 371.1328125 20.69140625 371.1328125 46.392578125 c 2
 371.1328125 74.2265625 l 2
 371.1328125 99.927734375 391.82421875 120.619140625 417.525390625 120.619140625 c 2
EndSplineSet
EndChar

StartChar: O
Encoding: 79 79 14
Width: 676
Flags: HW
LayerCount: 2
Fore
SplineSet
46.392578125 770.103515625 m 2
 510.310546875 770.103515625 l 2
 536.01171875 770.103515625 556.701171875 749.412109375 556.701171875 723.7109375 c 2
 556.701171875 695.876953125 l 2
 556.701171875 670.17578125 536.01171875 649.484375 510.310546875 649.484375 c 2
 46.392578125 649.484375 l 2
 20.69140625 649.484375 0 670.17578125 0 695.876953125 c 2
 0 723.7109375 l 2
 0 749.412109375 20.69140625 770.103515625 46.392578125 770.103515625 c 2
46.392578125 640.20703125 m 2
 139.17578125 640.20703125 l 2
 164.876953125 640.20703125 185.568359375 619.515625 185.568359375 593.814453125 c 2
 185.568359375 565.98046875 l 2
 185.568359375 540.279296875 164.876953125 519.587890625 139.17578125 519.587890625 c 2
 46.392578125 519.587890625 l 2
 20.69140625 519.587890625 0 540.279296875 0 565.98046875 c 2
 0 593.814453125 l 2
 0 619.515625 20.69140625 640.20703125 46.392578125 640.20703125 c 2
417.52734375 640.20703125 m 2
 510.310546875 640.20703125 l 2
 536.01171875 640.20703125 556.701171875 619.515625 556.701171875 593.814453125 c 2
 556.701171875 565.98046875 l 2
 556.701171875 540.279296875 536.01171875 519.587890625 510.310546875 519.587890625 c 2
 417.52734375 519.587890625 l 2
 391.826171875 519.587890625 371.134765625 540.279296875 371.134765625 565.98046875 c 2
 371.134765625 593.814453125 l 2
 371.134765625 619.515625 391.826171875 640.20703125 417.52734375 640.20703125 c 2
46.392578125 510.310546875 m 2
 139.17578125 510.310546875 l 2
 164.876953125 510.310546875 185.568359375 489.619140625 185.568359375 463.91796875 c 2
 185.568359375 436.08203125 l 2
 185.568359375 410.380859375 164.876953125 389.69140625 139.17578125 389.69140625 c 2
 46.392578125 389.69140625 l 2
 20.69140625 389.69140625 0 410.380859375 0 436.08203125 c 2
 0 463.91796875 l 2
 0 489.619140625 20.69140625 510.310546875 46.392578125 510.310546875 c 2
417.52734375 510.310546875 m 2
 510.310546875 510.310546875 l 2
 536.01171875 510.310546875 556.701171875 489.619140625 556.701171875 463.91796875 c 2
 556.701171875 436.08203125 l 2
 556.701171875 410.380859375 536.01171875 389.69140625 510.310546875 389.69140625 c 2
 417.52734375 389.69140625 l 2
 391.826171875 389.69140625 371.134765625 410.380859375 371.134765625 436.08203125 c 2
 371.134765625 463.91796875 l 2
 371.134765625 489.619140625 391.826171875 510.310546875 417.52734375 510.310546875 c 2
46.392578125 380.412109375 m 2
 139.17578125 380.412109375 l 2
 164.876953125 380.412109375 185.568359375 359.72265625 185.568359375 334.021484375 c 2
 185.568359375 306.185546875 l 2
 185.568359375 280.484375 164.876953125 259.794921875 139.17578125 259.794921875 c 2
 46.392578125 259.794921875 l 2
 20.69140625 259.794921875 0 280.484375 0 306.185546875 c 2
 0 334.021484375 l 2
 0 359.72265625 20.69140625 380.412109375 46.392578125 380.412109375 c 2
417.52734375 380.412109375 m 2
 510.310546875 380.412109375 l 2
 536.01171875 380.412109375 556.701171875 359.72265625 556.701171875 334.021484375 c 2
 556.701171875 306.185546875 l 2
 556.701171875 280.484375 536.01171875 259.794921875 510.310546875 259.794921875 c 2
 417.52734375 259.794921875 l 2
 391.826171875 259.794921875 371.134765625 280.484375 371.134765625 306.185546875 c 2
 371.134765625 334.021484375 l 2
 371.134765625 359.72265625 391.826171875 380.412109375 417.52734375 380.412109375 c 2
46.392578125 250.515625 m 2
 139.17578125 250.515625 l 2
 164.876953125 250.515625 185.568359375 229.826171875 185.568359375 204.125 c 2
 185.568359375 176.2890625 l 2
 185.568359375 150.587890625 164.876953125 129.896484375 139.17578125 129.896484375 c 2
 46.392578125 129.896484375 l 2
 20.69140625 129.896484375 0 150.587890625 0 176.2890625 c 2
 0 204.125 l 2
 0 229.826171875 20.69140625 250.515625 46.392578125 250.515625 c 2
417.52734375 250.515625 m 2
 510.310546875 250.515625 l 2
 536.01171875 250.515625 556.701171875 229.826171875 556.701171875 204.125 c 2
 556.701171875 176.2890625 l 2
 556.701171875 150.587890625 536.01171875 129.896484375 510.310546875 129.896484375 c 2
 417.52734375 129.896484375 l 2
 391.826171875 129.896484375 371.134765625 150.587890625 371.134765625 176.2890625 c 2
 371.134765625 204.125 l 2
 371.134765625 229.826171875 391.826171875 250.515625 417.52734375 250.515625 c 2
46.392578125 120.619140625 m 2
 510.310546875 120.619140625 l 2
 536.01171875 120.619140625 556.701171875 99.927734375 556.701171875 74.2265625 c 2
 556.701171875 46.392578125 l 2
 556.701171875 20.69140625 536.01171875 0 510.310546875 0 c 2
 46.392578125 0 l 2
 20.69140625 0 0 20.69140625 0 46.392578125 c 2
 0 74.2265625 l 2
 0 99.927734375 20.69140625 120.619140625 46.392578125 120.619140625 c 2
EndSplineSet
EndChar

StartChar: P
Encoding: 80 80 15
Width: 641
Flags: HW
LayerCount: 2
Fore
SplineSet
54.216796875 770.103515625 m 2
 425.349609375 770.103515625 l 2
 451.05078125 770.103515625 471.7421875 749.412109375 471.7421875 723.7109375 c 2
 471.7421875 695.876953125 l 2
 471.7421875 670.17578125 451.05078125 649.484375 425.349609375 649.484375 c 2
 54.216796875 649.484375 l 2
 28.515625 649.484375 7.82421875 670.17578125 7.82421875 695.876953125 c 2
 7.82421875 723.7109375 l 2
 7.82421875 749.412109375 28.515625 770.103515625 54.216796875 770.103515625 c 2
54.216796875 640.20703125 m 2
 147 640.20703125 l 2
 172.701171875 640.20703125 193.390625 619.515625 193.390625 593.814453125 c 2
 193.390625 565.98046875 l 2
 193.390625 540.279296875 172.701171875 519.587890625 147 519.587890625 c 2
 54.216796875 519.587890625 l 2
 28.515625 519.587890625 7.82421875 540.279296875 7.82421875 565.98046875 c 2
 7.82421875 593.814453125 l 2
 7.82421875 619.515625 28.515625 640.20703125 54.216796875 640.20703125 c 2
425.349609375 640.20703125 m 2
 518.1328125 640.20703125 l 2
 543.833984375 640.20703125 564.525390625 619.515625 564.525390625 593.814453125 c 2
 564.525390625 565.98046875 l 2
 564.525390625 540.279296875 543.833984375 519.587890625 518.1328125 519.587890625 c 2
 425.349609375 519.587890625 l 2
 399.6484375 519.587890625 378.958984375 540.279296875 378.958984375 565.98046875 c 2
 378.958984375 593.814453125 l 2
 378.958984375 619.515625 399.6484375 640.20703125 425.349609375 640.20703125 c 2
54.216796875 510.310546875 m 2
 147 510.310546875 l 2
 172.701171875 510.310546875 193.390625 489.619140625 193.390625 463.91796875 c 2
 193.390625 436.08203125 l 2
 193.390625 410.380859375 172.701171875 389.69140625 147 389.69140625 c 2
 54.216796875 389.69140625 l 2
 28.515625 389.69140625 7.82421875 410.380859375 7.82421875 436.08203125 c 2
 7.82421875 463.91796875 l 2
 7.82421875 489.619140625 28.515625 510.310546875 54.216796875 510.310546875 c 2
425.349609375 510.310546875 m 2
 518.1328125 510.310546875 l 2
 543.833984375 510.310546875 564.525390625 489.619140625 564.525390625 463.91796875 c 2
 564.525390625 436.08203125 l 2
 564.525390625 410.380859375 543.833984375 389.69140625 518.1328125 389.69140625 c 2
 425.349609375 389.69140625 l 2
 399.6484375 389.69140625 378.958984375 410.380859375 378.958984375 436.08203125 c 2
 378.958984375 463.91796875 l 2
 378.958984375 489.619140625 399.6484375 510.310546875 425.349609375 510.310546875 c 2
54.216796875 380.412109375 m 2
 425.349609375 380.412109375 l 2
 451.05078125 380.412109375 471.7421875 359.72265625 471.7421875 334.021484375 c 2
 471.7421875 306.185546875 l 2
 471.7421875 280.484375 451.05078125 259.794921875 425.349609375 259.794921875 c 2
 54.216796875 259.794921875 l 2
 28.515625 259.794921875 7.82421875 280.484375 7.82421875 306.185546875 c 2
 7.82421875 334.021484375 l 2
 7.82421875 359.72265625 28.515625 380.412109375 54.216796875 380.412109375 c 2
54.216796875 250.515625 m 2
 147 250.515625 l 2
 172.701171875 250.515625 193.390625 229.826171875 193.390625 204.125 c 2
 193.390625 176.2890625 l 2
 193.390625 150.587890625 172.701171875 129.896484375 147 129.896484375 c 2
 54.216796875 129.896484375 l 2
 28.515625 129.896484375 7.82421875 150.587890625 7.82421875 176.2890625 c 2
 7.82421875 204.125 l 2
 7.82421875 229.826171875 28.515625 250.515625 54.216796875 250.515625 c 2
54.216796875 120.619140625 m 2
 147 120.619140625 l 2
 172.701171875 120.619140625 193.390625 99.927734375 193.390625 74.2265625 c 2
 193.390625 46.392578125 l 2
 193.390625 20.69140625 172.701171875 0 147 0 c 2
 54.216796875 0 l 2
 28.515625 0 7.82421875 20.69140625 7.82421875 46.392578125 c 2
 7.82421875 74.2265625 l 2
 7.82421875 99.927734375 28.515625 120.619140625 54.216796875 120.619140625 c 2
EndSplineSet
EndChar

StartChar: Q
Encoding: 81 81 16
Width: 643
Flags: HW
LayerCount: 2
Fore
SplineSet
133 770.103515625 m 2
 411.349609375 770.103515625 l 2
 437.05078125 770.103515625 457.7421875 749.412109375 457.7421875 723.7109375 c 2
 457.7421875 695.876953125 l 2
 457.7421875 670.17578125 437.05078125 649.484375 411.349609375 649.484375 c 2
 133 649.484375 l 2
 107.298828125 649.484375 86.607421875 670.17578125 86.607421875 695.876953125 c 2
 86.607421875 723.7109375 l 2
 86.607421875 749.412109375 107.298828125 770.103515625 133 770.103515625 c 2
40.21484375 640.20703125 m 2
 133 640.20703125 l 2
 158.701171875 640.20703125 179.390625 619.515625 179.390625 593.814453125 c 2
 179.390625 565.98046875 l 2
 179.390625 540.279296875 158.701171875 519.587890625 133 519.587890625 c 2
 40.21484375 519.587890625 l 2
 14.513671875 519.587890625 -6.17578125 540.279296875 -6.17578125 565.98046875 c 2
 -6.17578125 593.814453125 l 2
 -6.17578125 619.515625 14.513671875 640.20703125 40.21484375 640.20703125 c 2
411.349609375 640.20703125 m 2
 504.1328125 640.20703125 l 2
 529.833984375 640.20703125 550.525390625 619.515625 550.525390625 593.814453125 c 2
 550.525390625 565.98046875 l 2
 550.525390625 540.279296875 529.833984375 519.587890625 504.1328125 519.587890625 c 2
 411.349609375 519.587890625 l 2
 385.6484375 519.587890625 364.958984375 540.279296875 364.958984375 565.98046875 c 2
 364.958984375 593.814453125 l 2
 364.958984375 619.515625 385.6484375 640.20703125 411.349609375 640.20703125 c 2
40.21484375 510.310546875 m 2
 133 510.310546875 l 2
 158.701171875 510.310546875 179.390625 489.619140625 179.390625 463.91796875 c 2
 179.390625 436.08203125 l 2
 179.390625 410.380859375 158.701171875 389.69140625 133 389.69140625 c 2
 40.21484375 389.69140625 l 2
 14.513671875 389.69140625 -6.17578125 410.380859375 -6.17578125 436.08203125 c 2
 -6.17578125 463.91796875 l 2
 -6.17578125 489.619140625 14.513671875 510.310546875 40.21484375 510.310546875 c 2
411.349609375 510.310546875 m 2
 504.1328125 510.310546875 l 2
 529.833984375 510.310546875 550.525390625 489.619140625 550.525390625 463.91796875 c 2
 550.525390625 436.08203125 l 2
 550.525390625 410.380859375 529.833984375 389.69140625 504.1328125 389.69140625 c 2
 411.349609375 389.69140625 l 2
 385.6484375 389.69140625 364.958984375 410.380859375 364.958984375 436.08203125 c 2
 364.958984375 463.91796875 l 2
 364.958984375 489.619140625 385.6484375 510.310546875 411.349609375 510.310546875 c 2
40.21484375 380.412109375 m 2
 133 380.412109375 l 2
 158.701171875 380.412109375 179.390625 359.72265625 179.390625 334.021484375 c 2
 179.390625 306.185546875 l 2
 179.390625 280.484375 158.701171875 259.794921875 133 259.794921875 c 2
 40.21484375 259.794921875 l 2
 14.513671875 259.794921875 -6.17578125 280.484375 -6.17578125 306.185546875 c 2
 -6.17578125 334.021484375 l 2
 -6.17578125 359.72265625 14.513671875 380.412109375 40.21484375 380.412109375 c 2
411.349609375 380.412109375 m 2
 504.1328125 380.412109375 l 2
 529.833984375 380.412109375 550.525390625 359.72265625 550.525390625 334.021484375 c 2
 550.525390625 306.185546875 l 2
 550.525390625 280.484375 529.833984375 259.794921875 504.1328125 259.794921875 c 2
 411.349609375 259.794921875 l 2
 385.6484375 259.794921875 364.958984375 280.484375 364.958984375 306.185546875 c 2
 364.958984375 334.021484375 l 2
 364.958984375 359.72265625 385.6484375 380.412109375 411.349609375 380.412109375 c 2
40.21484375 250.515625 m 2
 133 250.515625 l 2
 158.701171875 250.515625 179.390625 229.826171875 179.390625 204.125 c 2
 179.390625 176.2890625 l 2
 179.390625 150.587890625 158.701171875 129.896484375 133 129.896484375 c 2
 40.21484375 129.896484375 l 2
 14.513671875 129.896484375 -6.17578125 150.587890625 -6.17578125 176.2890625 c 2
 -6.17578125 204.125 l 2
 -6.17578125 229.826171875 14.513671875 250.515625 40.21484375 250.515625 c 2
411.349609375 250.515625 m 2
 504.1328125 250.515625 l 2
 529.833984375 250.515625 550.525390625 229.826171875 550.525390625 204.125 c 2
 550.525390625 176.2890625 l 2
 550.525390625 150.587890625 529.833984375 129.896484375 504.1328125 129.896484375 c 2
 411.349609375 129.896484375 l 2
 385.6484375 129.896484375 364.958984375 150.587890625 364.958984375 176.2890625 c 2
 364.958984375 204.125 l 2
 364.958984375 229.826171875 385.6484375 250.515625 411.349609375 250.515625 c 2
133 120.619140625 m 2
 411.349609375 120.619140625 l 2
 437.05078125 120.619140625 457.7421875 99.927734375 457.7421875 74.2265625 c 2
 457.7421875 46.392578125 l 2
 457.7421875 20.69140625 437.05078125 0 411.349609375 0 c 2
 133 0 l 2
 107.298828125 0 86.607421875 20.69140625 86.607421875 46.392578125 c 2
 86.607421875 74.2265625 l 2
 86.607421875 99.927734375 107.298828125 120.619140625 133 120.619140625 c 2
411.349609375 -9.27734375 m 2
 504.1328125 -9.27734375 l 2
 529.833984375 -9.27734375 550.525390625 -29.96875 550.525390625 -55.669921875 c 2
 550.525390625 -83.50390625 l 2
 550.525390625 -109.205078125 529.833984375 -129.896484375 504.1328125 -129.896484375 c 2
 411.349609375 -129.896484375 l 2
 385.6484375 -129.896484375 364.958984375 -109.205078125 364.958984375 -83.50390625 c 2
 364.958984375 -55.669921875 l 2
 364.958984375 -29.96875 385.6484375 -9.27734375 411.349609375 -9.27734375 c 2
EndSplineSet
EndChar

StartChar: R
Encoding: 82 82 17
Width: 640
Flags: HW
LayerCount: 2
Fore
SplineSet
46.392578125 770.103515625 m 2
 417.52734375 770.103515625 l 2
 443.228515625 770.103515625 463.91796875 749.412109375 463.91796875 723.7109375 c 2
 463.91796875 695.876953125 l 2
 463.91796875 670.17578125 443.228515625 649.484375 417.52734375 649.484375 c 2
 46.392578125 649.484375 l 2
 20.69140625 649.484375 0 670.17578125 0 695.876953125 c 2
 0 723.7109375 l 2
 0 749.412109375 20.69140625 770.103515625 46.392578125 770.103515625 c 2
46.392578125 640.20703125 m 2
 139.17578125 640.20703125 l 2
 164.876953125 640.20703125 185.568359375 619.515625 185.568359375 593.814453125 c 2
 185.568359375 565.98046875 l 2
 185.568359375 540.279296875 164.876953125 519.587890625 139.17578125 519.587890625 c 2
 46.392578125 519.587890625 l 2
 20.69140625 519.587890625 0 540.279296875 0 565.98046875 c 2
 0 593.814453125 l 2
 0 619.515625 20.69140625 640.20703125 46.392578125 640.20703125 c 2
417.52734375 640.20703125 m 2
 510.310546875 640.20703125 l 2
 536.01171875 640.20703125 556.703125 619.515625 556.703125 593.814453125 c 2
 556.703125 565.98046875 l 2
 556.703125 540.279296875 536.01171875 519.587890625 510.310546875 519.587890625 c 2
 417.52734375 519.587890625 l 2
 391.826171875 519.587890625 371.134765625 540.279296875 371.134765625 565.98046875 c 2
 371.134765625 593.814453125 l 2
 371.134765625 619.515625 391.826171875 640.20703125 417.52734375 640.20703125 c 2
46.392578125 510.310546875 m 2
 139.17578125 510.310546875 l 2
 164.876953125 510.310546875 185.568359375 489.619140625 185.568359375 463.91796875 c 2
 185.568359375 436.08203125 l 2
 185.568359375 410.380859375 164.876953125 389.69140625 139.17578125 389.69140625 c 2
 46.392578125 389.69140625 l 2
 20.69140625 389.69140625 0 410.380859375 0 436.08203125 c 2
 0 463.91796875 l 2
 0 489.619140625 20.69140625 510.310546875 46.392578125 510.310546875 c 2
417.52734375 510.310546875 m 2
 510.310546875 510.310546875 l 2
 536.01171875 510.310546875 556.703125 489.619140625 556.703125 463.91796875 c 2
 556.703125 436.08203125 l 2
 556.703125 410.380859375 536.01171875 389.69140625 510.310546875 389.69140625 c 2
 417.52734375 389.69140625 l 2
 391.826171875 389.69140625 371.134765625 410.380859375 371.134765625 436.08203125 c 2
 371.134765625 463.91796875 l 2
 371.134765625 489.619140625 391.826171875 510.310546875 417.52734375 510.310546875 c 2
46.392578125 380.412109375 m 2
 417.52734375 380.412109375 l 2
 443.228515625 380.412109375 463.91796875 359.72265625 463.91796875 334.021484375 c 2
 463.91796875 306.185546875 l 2
 463.91796875 280.484375 443.228515625 259.794921875 417.52734375 259.794921875 c 2
 46.392578125 259.794921875 l 2
 20.69140625 259.794921875 0 280.484375 0 306.185546875 c 2
 0 334.021484375 l 2
 0 359.72265625 20.69140625 380.412109375 46.392578125 380.412109375 c 2
46.392578125 250.515625 m 2
 139.17578125 250.515625 l 2
 164.876953125 250.515625 185.568359375 229.826171875 185.568359375 204.125 c 2
 185.568359375 176.2890625 l 2
 185.568359375 150.587890625 164.876953125 129.896484375 139.17578125 129.896484375 c 2
 46.392578125 129.896484375 l 2
 20.69140625 129.896484375 0 150.587890625 0 176.2890625 c 2
 0 204.125 l 2
 0 229.826171875 20.69140625 250.515625 46.392578125 250.515625 c 2
324.744140625 250.515625 m 2
 417.52734375 250.515625 l 2
 443.228515625 250.515625 463.91796875 229.826171875 463.91796875 204.125 c 2
 463.91796875 176.2890625 l 2
 463.91796875 150.587890625 443.228515625 129.896484375 417.52734375 129.896484375 c 2
 324.744140625 129.896484375 l 2
 299.04296875 129.896484375 278.3515625 150.587890625 278.3515625 176.2890625 c 2
 278.3515625 204.125 l 2
 278.3515625 229.826171875 299.04296875 250.515625 324.744140625 250.515625 c 2
46.392578125 120.619140625 m 2
 139.17578125 120.619140625 l 2
 164.876953125 120.619140625 185.568359375 99.927734375 185.568359375 74.2265625 c 2
 185.568359375 46.392578125 l 2
 185.568359375 20.69140625 164.876953125 0 139.17578125 0 c 2
 46.392578125 0 l 2
 20.69140625 0 0 20.69140625 0 46.392578125 c 2
 0 74.2265625 l 2
 0 99.927734375 20.69140625 120.619140625 46.392578125 120.619140625 c 2
417.52734375 120.619140625 m 2
 510.310546875 120.619140625 l 2
 536.01171875 120.619140625 556.703125 99.927734375 556.703125 74.2265625 c 2
 556.703125 46.392578125 l 2
 556.703125 20.69140625 536.01171875 0 510.310546875 0 c 2
 417.52734375 0 l 2
 391.826171875 0 371.134765625 20.69140625 371.134765625 46.392578125 c 2
 371.134765625 74.2265625 l 2
 371.134765625 99.927734375 391.826171875 120.619140625 417.52734375 120.619140625 c 2
EndSplineSet
EndChar

StartChar: S
Encoding: 83 83 18
Width: 649
Flags: HW
LayerCount: 2
Fore
SplineSet
139.17578125 770.103515625 m 2
 510.310546875 770.103515625 l 2
 536.01171875 770.103515625 556.703125 749.412109375 556.703125 723.7109375 c 2
 556.703125 695.876953125 l 2
 556.703125 670.17578125 536.01171875 649.484375 510.310546875 649.484375 c 2
 139.17578125 649.484375 l 2
 113.474609375 649.484375 92.78515625 670.17578125 92.78515625 695.876953125 c 2
 92.78515625 723.7109375 l 2
 92.78515625 749.412109375 113.474609375 770.103515625 139.17578125 770.103515625 c 2
46.392578125 640.20703125 m 2
 139.17578125 640.20703125 l 2
 164.876953125 640.20703125 185.568359375 619.515625 185.568359375 593.814453125 c 2
 185.568359375 565.98046875 l 2
 185.568359375 540.279296875 164.876953125 519.587890625 139.17578125 519.587890625 c 2
 46.392578125 519.587890625 l 2
 20.69140625 519.587890625 0 540.279296875 0 565.98046875 c 2
 0 593.814453125 l 2
 0 619.515625 20.69140625 640.20703125 46.392578125 640.20703125 c 2
139.17578125 510.310546875 m 2
 417.52734375 510.310546875 l 2
 443.228515625 510.310546875 463.91796875 489.619140625 463.91796875 463.91796875 c 2
 463.91796875 436.08203125 l 2
 463.91796875 410.380859375 443.228515625 389.69140625 417.52734375 389.69140625 c 2
 139.17578125 389.69140625 l 2
 113.474609375 389.69140625 92.78515625 410.380859375 92.78515625 436.08203125 c 2
 92.78515625 463.91796875 l 2
 92.78515625 489.619140625 113.474609375 510.310546875 139.17578125 510.310546875 c 2
417.52734375 380.412109375 m 2
 510.310546875 380.412109375 l 2
 536.01171875 380.412109375 556.701171875 359.72265625 556.701171875 334.021484375 c 2
 556.701171875 306.185546875 l 2
 556.701171875 280.484375 536.01171875 259.794921875 510.310546875 259.794921875 c 2
 417.52734375 259.794921875 l 2
 391.826171875 259.794921875 371.134765625 280.484375 371.134765625 306.185546875 c 2
 371.134765625 334.021484375 l 2
 371.134765625 359.72265625 391.826171875 380.412109375 417.52734375 380.412109375 c 2
46.392578125 250.515625 m 2
 139.17578125 250.515625 l 2
 164.876953125 250.515625 185.568359375 229.826171875 185.568359375 204.125 c 2
 185.568359375 176.2890625 l 2
 185.568359375 150.587890625 164.876953125 129.896484375 139.17578125 129.896484375 c 2
 46.392578125 129.896484375 l 2
 20.69140625 129.896484375 0 150.587890625 0 176.2890625 c 2
 0 204.125 l 2
 0 229.826171875 20.69140625 250.515625 46.392578125 250.515625 c 2
417.52734375 250.515625 m 2
 510.310546875 250.515625 l 2
 536.01171875 250.515625 556.701171875 229.826171875 556.701171875 204.125 c 2
 556.701171875 176.2890625 l 2
 556.701171875 150.587890625 536.01171875 129.896484375 510.310546875 129.896484375 c 2
 417.52734375 129.896484375 l 2
 391.826171875 129.896484375 371.134765625 150.587890625 371.134765625 176.2890625 c 2
 371.134765625 204.125 l 2
 371.134765625 229.826171875 391.826171875 250.515625 417.52734375 250.515625 c 2
139.17578125 120.619140625 m 2
 417.52734375 120.619140625 l 2
 443.228515625 120.619140625 463.91796875 99.927734375 463.91796875 74.2265625 c 2
 463.91796875 46.392578125 l 2
 463.91796875 20.69140625 443.228515625 0 417.52734375 0 c 2
 139.17578125 0 l 2
 113.474609375 0 92.78515625 20.69140625 92.78515625 46.392578125 c 2
 92.78515625 74.2265625 l 2
 92.78515625 99.927734375 113.474609375 120.619140625 139.17578125 120.619140625 c 2
EndSplineSet
EndChar

StartChar: T
Encoding: 84 84 19
Width: 646
Flags: HW
LayerCount: 2
Fore
SplineSet
46.392578125 770.103515625 m 2
 510.30859375 770.103515625 l 2
 536.009765625 770.103515625 556.701171875 749.412109375 556.701171875 723.7109375 c 2
 556.701171875 695.876953125 l 2
 556.701171875 670.17578125 536.009765625 649.484375 510.30859375 649.484375 c 2
 46.392578125 649.484375 l 2
 20.69140625 649.484375 0 670.17578125 0 695.876953125 c 2
 0 723.7109375 l 2
 0 749.412109375 20.69140625 770.103515625 46.392578125 770.103515625 c 2
231.958984375 640.20703125 m 2
 324.7421875 640.20703125 l 2
 350.443359375 640.20703125 371.134765625 619.515625 371.134765625 593.814453125 c 2
 371.134765625 565.98046875 l 2
 371.134765625 540.279296875 350.443359375 519.587890625 324.7421875 519.587890625 c 2
 231.958984375 519.587890625 l 2
 206.2578125 519.587890625 185.56640625 540.279296875 185.56640625 565.98046875 c 2
 185.56640625 593.814453125 l 2
 185.56640625 619.515625 206.2578125 640.20703125 231.958984375 640.20703125 c 2
231.958984375 510.310546875 m 2
 324.7421875 510.310546875 l 2
 350.443359375 510.310546875 371.134765625 489.619140625 371.134765625 463.91796875 c 2
 371.134765625 436.08203125 l 2
 371.134765625 410.380859375 350.443359375 389.69140625 324.7421875 389.69140625 c 2
 231.958984375 389.69140625 l 2
 206.2578125 389.69140625 185.56640625 410.380859375 185.56640625 436.08203125 c 2
 185.56640625 463.91796875 l 2
 185.56640625 489.619140625 206.2578125 510.310546875 231.958984375 510.310546875 c 2
231.958984375 380.412109375 m 2
 324.7421875 380.412109375 l 2
 350.443359375 380.412109375 371.134765625 359.72265625 371.134765625 334.021484375 c 2
 371.134765625 306.185546875 l 2
 371.134765625 280.484375 350.443359375 259.794921875 324.7421875 259.794921875 c 2
 231.958984375 259.794921875 l 2
 206.2578125 259.794921875 185.56640625 280.484375 185.56640625 306.185546875 c 2
 185.56640625 334.021484375 l 2
 185.56640625 359.72265625 206.2578125 380.412109375 231.958984375 380.412109375 c 2
231.958984375 250.515625 m 2
 324.7421875 250.515625 l 2
 350.443359375 250.515625 371.134765625 229.826171875 371.134765625 204.125 c 2
 371.134765625 176.2890625 l 2
 371.134765625 150.587890625 350.443359375 129.896484375 324.7421875 129.896484375 c 2
 231.958984375 129.896484375 l 2
 206.2578125 129.896484375 185.56640625 150.587890625 185.56640625 176.2890625 c 2
 185.56640625 204.125 l 2
 185.56640625 229.826171875 206.2578125 250.515625 231.958984375 250.515625 c 2
231.958984375 120.619140625 m 2
 324.7421875 120.619140625 l 2
 350.443359375 120.619140625 371.134765625 99.927734375 371.134765625 74.2265625 c 2
 371.134765625 46.392578125 l 2
 371.134765625 20.69140625 350.443359375 0 324.7421875 0 c 2
 231.958984375 0 l 2
 206.2578125 0 185.56640625 20.69140625 185.56640625 46.392578125 c 2
 185.56640625 74.2265625 l 2
 185.56640625 99.927734375 206.2578125 120.619140625 231.958984375 120.619140625 c 2
EndSplineSet
EndChar

StartChar: U
Encoding: 85 85 20
Width: 644
Flags: HW
LayerCount: 2
Fore
SplineSet
46.392578125 770.103515625 m 2
 139.17578125 770.103515625 l 2
 164.876953125 770.103515625 185.56640625 749.412109375 185.56640625 723.7109375 c 2
 185.56640625 695.876953125 l 2
 185.56640625 670.17578125 164.876953125 649.484375 139.17578125 649.484375 c 2
 46.392578125 649.484375 l 2
 20.69140625 649.484375 0 670.17578125 0 695.876953125 c 2
 0 723.7109375 l 2
 0 749.412109375 20.69140625 770.103515625 46.392578125 770.103515625 c 2
417.525390625 770.103515625 m 2
 510.30859375 770.103515625 l 2
 536.009765625 770.103515625 556.701171875 749.412109375 556.701171875 723.7109375 c 2
 556.701171875 695.876953125 l 2
 556.701171875 670.17578125 536.009765625 649.484375 510.30859375 649.484375 c 2
 417.525390625 649.484375 l 2
 391.82421875 649.484375 371.1328125 670.17578125 371.1328125 695.876953125 c 2
 371.1328125 723.7109375 l 2
 371.1328125 749.412109375 391.82421875 770.103515625 417.525390625 770.103515625 c 2
46.392578125 640.20703125 m 2
 139.17578125 640.20703125 l 2
 164.876953125 640.20703125 185.56640625 619.515625 185.56640625 593.814453125 c 2
 185.56640625 565.98046875 l 2
 185.56640625 540.279296875 164.876953125 519.587890625 139.17578125 519.587890625 c 2
 46.392578125 519.587890625 l 2
 20.69140625 519.587890625 0 540.279296875 0 565.98046875 c 2
 0 593.814453125 l 2
 0 619.515625 20.69140625 640.20703125 46.392578125 640.20703125 c 2
417.525390625 640.20703125 m 2
 510.30859375 640.20703125 l 2
 536.009765625 640.20703125 556.701171875 619.515625 556.701171875 593.814453125 c 2
 556.701171875 565.98046875 l 2
 556.701171875 540.279296875 536.009765625 519.587890625 510.30859375 519.587890625 c 2
 417.525390625 519.587890625 l 2
 391.82421875 519.587890625 371.1328125 540.279296875 371.1328125 565.98046875 c 2
 371.1328125 593.814453125 l 2
 371.1328125 619.515625 391.82421875 640.20703125 417.525390625 640.20703125 c 2
46.392578125 510.310546875 m 2
 139.17578125 510.310546875 l 2
 164.876953125 510.310546875 185.56640625 489.619140625 185.56640625 463.91796875 c 2
 185.56640625 436.08203125 l 2
 185.56640625 410.380859375 164.876953125 389.69140625 139.17578125 389.69140625 c 2
 46.392578125 389.69140625 l 2
 20.69140625 389.69140625 0 410.380859375 0 436.08203125 c 2
 0 463.91796875 l 2
 0 489.619140625 20.69140625 510.310546875 46.392578125 510.310546875 c 2
417.525390625 510.310546875 m 2
 510.30859375 510.310546875 l 2
 536.009765625 510.310546875 556.701171875 489.619140625 556.701171875 463.91796875 c 2
 556.701171875 436.08203125 l 2
 556.701171875 410.380859375 536.009765625 389.69140625 510.30859375 389.69140625 c 2
 417.525390625 389.69140625 l 2
 391.82421875 389.69140625 371.1328125 410.380859375 371.1328125 436.08203125 c 2
 371.1328125 463.91796875 l 2
 371.1328125 489.619140625 391.82421875 510.310546875 417.525390625 510.310546875 c 2
46.392578125 380.412109375 m 2
 139.17578125 380.412109375 l 2
 164.876953125 380.412109375 185.56640625 359.72265625 185.56640625 334.021484375 c 2
 185.56640625 306.185546875 l 2
 185.56640625 280.484375 164.876953125 259.794921875 139.17578125 259.794921875 c 2
 46.392578125 259.794921875 l 2
 20.69140625 259.794921875 0 280.484375 0 306.185546875 c 2
 0 334.021484375 l 2
 0 359.72265625 20.69140625 380.412109375 46.392578125 380.412109375 c 2
417.525390625 380.412109375 m 2
 510.30859375 380.412109375 l 2
 536.009765625 380.412109375 556.701171875 359.72265625 556.701171875 334.021484375 c 2
 556.701171875 306.185546875 l 2
 556.701171875 280.484375 536.009765625 259.794921875 510.30859375 259.794921875 c 2
 417.525390625 259.794921875 l 2
 391.82421875 259.794921875 371.1328125 280.484375 371.1328125 306.185546875 c 2
 371.1328125 334.021484375 l 2
 371.1328125 359.72265625 391.82421875 380.412109375 417.525390625 380.412109375 c 2
46.392578125 250.515625 m 2
 139.17578125 250.515625 l 2
 164.876953125 250.515625 185.56640625 229.826171875 185.56640625 204.125 c 2
 185.56640625 176.2890625 l 2
 185.56640625 150.587890625 164.876953125 129.896484375 139.17578125 129.896484375 c 2
 46.392578125 129.896484375 l 2
 20.69140625 129.896484375 0 150.587890625 0 176.2890625 c 2
 0 204.125 l 2
 0 229.826171875 20.69140625 250.515625 46.392578125 250.515625 c 2
417.525390625 250.515625 m 2
 510.30859375 250.515625 l 2
 536.009765625 250.515625 556.701171875 229.826171875 556.701171875 204.125 c 2
 556.701171875 176.2890625 l 2
 556.701171875 150.587890625 536.009765625 129.896484375 510.30859375 129.896484375 c 2
 417.525390625 129.896484375 l 2
 391.82421875 129.896484375 371.1328125 150.587890625 371.1328125 176.2890625 c 2
 371.1328125 204.125 l 2
 371.1328125 229.826171875 391.82421875 250.515625 417.525390625 250.515625 c 2
46.392578125 120.619140625 m 2
 510.30859375 120.619140625 l 2
 536.009765625 120.619140625 556.701171875 99.927734375 556.701171875 74.2265625 c 2
 556.701171875 46.392578125 l 2
 556.701171875 20.69140625 536.009765625 0 510.30859375 0 c 2
 46.392578125 0 l 2
 20.69140625 0 0 20.69140625 0 46.392578125 c 2
 0 74.2265625 l 2
 0 99.927734375 20.69140625 120.619140625 46.392578125 120.619140625 c 2
EndSplineSet
EndChar

StartChar: V
Encoding: 86 86 21
Width: 640
Flags: HW
LayerCount: 2
Fore
SplineSet
46.390625 770.103515625 m 2
 139.173828125 770.103515625 l 2
 164.875 770.103515625 185.56640625 749.412109375 185.56640625 723.7109375 c 2
 185.56640625 695.875 l 2
 185.56640625 670.173828125 164.875 649.484375 139.173828125 649.484375 c 2
 46.390625 649.484375 l 2
 20.689453125 649.484375 0 670.173828125 0 695.875 c 2
 0 723.7109375 l 2
 0 749.412109375 20.689453125 770.103515625 46.390625 770.103515625 c 2
417.525390625 770.103515625 m 2
 510.30859375 770.103515625 l 2
 536.009765625 770.103515625 556.701171875 749.412109375 556.701171875 723.7109375 c 2
 556.701171875 695.875 l 2
 556.701171875 670.173828125 536.009765625 649.484375 510.30859375 649.484375 c 2
 417.525390625 649.484375 l 2
 391.82421875 649.484375 371.1328125 670.173828125 371.1328125 695.875 c 2
 371.1328125 723.7109375 l 2
 371.1328125 749.412109375 391.82421875 770.103515625 417.525390625 770.103515625 c 2
74.2265625 640.205078125 m 2
 167.009765625 640.205078125 l 2
 192.7109375 640.205078125 213.40234375 619.515625 213.40234375 593.814453125 c 2
 213.40234375 565.978515625 l 2
 213.40234375 540.27734375 192.7109375 519.587890625 167.009765625 519.587890625 c 2
 74.2265625 519.587890625 l 2
 48.525390625 519.587890625 27.833984375 540.27734375 27.833984375 565.978515625 c 2
 27.833984375 593.814453125 l 2
 27.833984375 619.515625 48.525390625 640.205078125 74.2265625 640.205078125 c 2
389.689453125 640.205078125 m 2
 482.47265625 640.205078125 l 2
 508.173828125 640.205078125 528.865234375 619.515625 528.865234375 593.814453125 c 2
 528.865234375 565.978515625 l 2
 528.865234375 540.27734375 508.173828125 519.587890625 482.47265625 519.587890625 c 2
 389.689453125 519.587890625 l 2
 363.98828125 519.587890625 343.298828125 540.27734375 343.298828125 565.978515625 c 2
 343.298828125 593.814453125 l 2
 343.298828125 619.515625 363.98828125 640.205078125 389.689453125 640.205078125 c 2
102.060546875 510.30859375 m 2
 194.84375 510.30859375 l 2
 220.544921875 510.30859375 241.236328125 489.6171875 241.236328125 463.916015625 c 2
 241.236328125 436.08203125 l 2
 241.236328125 410.380859375 220.544921875 389.689453125 194.84375 389.689453125 c 2
 102.060546875 389.689453125 l 2
 76.359375 389.689453125 55.669921875 410.380859375 55.669921875 436.08203125 c 2
 55.669921875 463.916015625 l 2
 55.669921875 489.6171875 76.359375 510.30859375 102.060546875 510.30859375 c 2
361.85546875 510.30859375 m 2
 454.638671875 510.30859375 l 2
 480.33984375 510.30859375 501.03125 489.6171875 501.03125 463.916015625 c 2
 501.03125 436.08203125 l 2
 501.03125 410.380859375 480.33984375 389.689453125 454.638671875 389.689453125 c 2
 361.85546875 389.689453125 l 2
 336.154296875 389.689453125 315.462890625 410.380859375 315.462890625 436.08203125 c 2
 315.462890625 463.916015625 l 2
 315.462890625 489.6171875 336.154296875 510.30859375 361.85546875 510.30859375 c 2
139.173828125 380.412109375 m 2
 231.95703125 380.412109375 l 2
 257.658203125 380.412109375 278.349609375 359.720703125 278.349609375 334.01953125 c 2
 278.349609375 306.185546875 l 2
 278.349609375 280.484375 257.658203125 259.79296875 231.95703125 259.79296875 c 2
 139.173828125 259.79296875 l 2
 113.47265625 259.79296875 92.783203125 280.484375 92.783203125 306.185546875 c 2
 92.783203125 334.01953125 l 2
 92.783203125 359.720703125 113.47265625 380.412109375 139.173828125 380.412109375 c 2
334.01953125 380.412109375 m 2
 426.802734375 380.412109375 l 2
 452.50390625 380.412109375 473.1953125 359.720703125 473.1953125 334.01953125 c 2
 473.1953125 306.185546875 l 2
 473.1953125 280.484375 452.50390625 259.79296875 426.802734375 259.79296875 c 2
 334.01953125 259.79296875 l 2
 308.318359375 259.79296875 287.62890625 280.484375 287.62890625 306.185546875 c 2
 287.62890625 334.01953125 l 2
 287.62890625 359.720703125 308.318359375 380.412109375 334.01953125 380.412109375 c 2
185.56640625 250.515625 m 2
 380.412109375 250.515625 l 2
 406.11328125 250.515625 426.802734375 229.82421875 426.802734375 204.123046875 c 2
 426.802734375 176.2890625 l 2
 426.802734375 150.587890625 406.11328125 129.896484375 380.412109375 129.896484375 c 2
 185.56640625 129.896484375 l 2
 159.865234375 129.896484375 139.173828125 150.587890625 139.173828125 176.2890625 c 2
 139.173828125 204.123046875 l 2
 139.173828125 229.82421875 159.865234375 250.515625 185.56640625 250.515625 c 2
231.958984375 120.6171875 m 2
 324.7421875 120.6171875 l 2
 350.443359375 120.6171875 371.1328125 99.927734375 371.1328125 74.2265625 c 2
 371.1328125 46.390625 l 2
 371.1328125 20.689453125 350.443359375 0 324.7421875 0 c 2
 231.958984375 0 l 2
 206.2578125 0 185.56640625 20.689453125 185.56640625 46.390625 c 2
 185.56640625 74.2265625 l 2
 185.56640625 99.927734375 206.2578125 120.6171875 231.958984375 120.6171875 c 2
EndSplineSet
EndChar

StartChar: W
Encoding: 87 87 22
Width: 744
Flags: HW
LayerCount: 2
Fore
SplineSet
38.134765625 770.103515625 m 2
 130.91796875 770.103515625 l 2
 156.619140625 770.103515625 177.310546875 749.412109375 177.310546875 723.7109375 c 2
 177.310546875 695.876953125 l 2
 177.310546875 670.17578125 156.619140625 649.484375 130.91796875 649.484375 c 2
 38.134765625 649.484375 l 2
 12.43359375 649.484375 -8.255859375 670.17578125 -8.255859375 695.876953125 c 2
 -8.255859375 723.7109375 l 2
 -8.255859375 749.412109375 12.43359375 770.103515625 38.134765625 770.103515625 c 2
474.216796875 770.103515625 m 2
 567 770.103515625 l 2
 592.701171875 770.103515625 613.392578125 749.412109375 613.392578125 723.7109375 c 2
 613.392578125 695.876953125 l 2
 613.392578125 670.17578125 592.701171875 649.484375 567 649.484375 c 2
 474.216796875 649.484375 l 2
 448.515625 649.484375 427.826171875 670.17578125 427.826171875 695.876953125 c 2
 427.826171875 723.7109375 l 2
 427.826171875 749.412109375 448.515625 770.103515625 474.216796875 770.103515625 c 2
38.134765625 640.20703125 m 2
 130.91796875 640.20703125 l 2
 156.619140625 640.20703125 177.310546875 619.515625 177.310546875 593.814453125 c 2
 177.310546875 565.98046875 l 2
 177.310546875 540.279296875 156.619140625 519.587890625 130.91796875 519.587890625 c 2
 38.134765625 519.587890625 l 2
 12.43359375 519.587890625 -8.255859375 540.279296875 -8.255859375 565.98046875 c 2
 -8.255859375 593.814453125 l 2
 -8.255859375 619.515625 12.43359375 640.20703125 38.134765625 640.20703125 c 2
474.216796875 640.20703125 m 2
 567 640.20703125 l 2
 592.701171875 640.20703125 613.392578125 619.515625 613.392578125 593.814453125 c 2
 613.392578125 565.98046875 l 2
 613.392578125 540.279296875 592.701171875 519.587890625 567 519.587890625 c 2
 474.216796875 519.587890625 l 2
 448.515625 519.587890625 427.826171875 540.279296875 427.826171875 565.98046875 c 2
 427.826171875 593.814453125 l 2
 427.826171875 619.515625 448.515625 640.20703125 474.216796875 640.20703125 c 2
38.134765625 510.310546875 m 2
 130.91796875 510.310546875 l 2
 156.619140625 510.310546875 177.310546875 489.619140625 177.310546875 463.91796875 c 2
 177.310546875 436.08203125 l 2
 177.310546875 410.380859375 156.619140625 389.69140625 130.91796875 389.69140625 c 2
 38.134765625 389.69140625 l 2
 12.43359375 389.69140625 -8.255859375 410.380859375 -8.255859375 436.08203125 c 2
 -8.255859375 463.91796875 l 2
 -8.255859375 489.619140625 12.43359375 510.310546875 38.134765625 510.310546875 c 2
474.216796875 510.310546875 m 2
 567 510.310546875 l 2
 592.701171875 510.310546875 613.392578125 489.619140625 613.392578125 463.91796875 c 2
 613.392578125 436.08203125 l 2
 613.392578125 410.380859375 592.701171875 389.69140625 567 389.69140625 c 2
 474.216796875 389.69140625 l 2
 448.515625 389.69140625 427.826171875 410.380859375 427.826171875 436.08203125 c 2
 427.826171875 463.91796875 l 2
 427.826171875 489.619140625 448.515625 510.310546875 474.216796875 510.310546875 c 2
38.134765625 380.412109375 m 2
 130.91796875 380.412109375 l 2
 156.619140625 380.412109375 177.310546875 359.72265625 177.310546875 334.021484375 c 2
 177.310546875 306.185546875 l 2
 177.310546875 280.484375 156.619140625 259.794921875 130.91796875 259.794921875 c 2
 38.134765625 259.794921875 l 2
 12.43359375 259.794921875 -8.255859375 280.484375 -8.255859375 306.185546875 c 2
 -8.255859375 334.021484375 l 2
 -8.255859375 359.72265625 12.43359375 380.412109375 38.134765625 380.412109375 c 2
474.216796875 380.412109375 m 2
 567 380.412109375 l 2
 592.701171875 380.412109375 613.392578125 359.72265625 613.392578125 334.021484375 c 2
 613.392578125 306.185546875 l 2
 613.392578125 280.484375 592.701171875 259.794921875 567 259.794921875 c 2
 474.216796875 259.794921875 l 2
 448.515625 259.794921875 427.826171875 280.484375 427.826171875 306.185546875 c 2
 427.826171875 334.021484375 l 2
 427.826171875 359.72265625 448.515625 380.412109375 474.216796875 380.412109375 c 2
251.537109375 371.134765625 m 2
 344.3203125 371.134765625 l 2
 370.021484375 371.134765625 390.712890625 350.443359375 390.712890625 324.7421875 c 2
 390.712890625 296.908203125 l 2
 390.712890625 271.20703125 370.021484375 250.515625 344.3203125 250.515625 c 2
 251.537109375 250.515625 l 2
 225.8359375 250.515625 205.14453125 271.20703125 205.14453125 296.908203125 c 2
 205.14453125 324.7421875 l 2
 205.14453125 350.443359375 225.8359375 371.134765625 251.537109375 371.134765625 c 2
38.134765625 250.515625 m 2
 223.701171875 250.515625 l 2
 249.40234375 250.515625 270.09375 229.826171875 270.09375 204.125 c 2
 270.09375 176.2890625 l 2
 270.09375 150.587890625 249.40234375 129.896484375 223.701171875 129.896484375 c 2
 38.134765625 129.896484375 l 2
 12.43359375 129.896484375 -8.255859375 150.587890625 -8.255859375 176.2890625 c 2
 -8.255859375 204.125 l 2
 -8.255859375 229.826171875 12.43359375 250.515625 38.134765625 250.515625 c 2
372.15625 250.515625 m 2
 567 250.515625 l 2
 592.701171875 250.515625 613.392578125 229.826171875 613.392578125 204.125 c 2
 613.392578125 176.2890625 l 2
 613.392578125 150.587890625 592.701171875 129.896484375 567 129.896484375 c 2
 372.15625 129.896484375 l 2
 346.455078125 129.896484375 325.763671875 150.587890625 325.763671875 176.2890625 c 2
 325.763671875 204.125 l 2
 325.763671875 229.826171875 346.455078125 250.515625 372.15625 250.515625 c 2
38.134765625 120.619140625 m 2
 130.91796875 120.619140625 l 2
 156.619140625 120.619140625 177.310546875 99.927734375 177.310546875 74.2265625 c 2
 177.310546875 46.392578125 l 2
 177.310546875 20.69140625 156.619140625 0 130.91796875 0 c 2
 38.134765625 0 l 2
 12.43359375 0 -8.255859375 20.69140625 -8.255859375 46.392578125 c 2
 -8.255859375 74.2265625 l 2
 -8.255859375 99.927734375 12.43359375 120.619140625 38.134765625 120.619140625 c 2
474.216796875 120.619140625 m 2
 567 120.619140625 l 2
 592.701171875 120.619140625 613.392578125 99.927734375 613.392578125 74.2265625 c 2
 613.392578125 46.392578125 l 2
 613.392578125 20.69140625 578.360351562 0 567 0 c 2
 474.216796875 0 l 2
 448.515625 0 427.826171875 20.69140625 427.826171875 46.392578125 c 2
 427.826171875 74.2265625 l 2
 427.826171875 99.927734375 448.515625 120.619140625 474.216796875 120.619140625 c 2
EndSplineSet
EndChar

StartChar: X
Encoding: 88 88 23
Width: 640
Flags: HW
LayerCount: 2
Fore
SplineSet
46.392578125 770.103515625 m 2
 139.17578125 770.103515625 l 2
 164.876953125 770.103515625 185.56640625 749.412109375 185.56640625 723.7109375 c 2
 185.56640625 695.875 l 2
 185.56640625 670.173828125 164.876953125 649.484375 139.17578125 649.484375 c 2
 46.392578125 649.484375 l 2
 20.69140625 649.484375 0 670.173828125 0 695.875 c 2
 0 723.7109375 l 2
 0 749.412109375 20.69140625 770.103515625 46.392578125 770.103515625 c 2
417.525390625 770.1015625 m 2
 510.30859375 770.1015625 l 2
 536.009765625 770.1015625 556.701171875 749.412109375 556.701171875 723.7109375 c 2
 556.701171875 695.875 l 2
 556.701171875 670.173828125 536.009765625 649.484375 510.30859375 649.484375 c 2
 417.525390625 649.484375 l 2
 391.82421875 649.484375 371.134765625 670.173828125 371.134765625 695.875 c 2
 371.134765625 723.7109375 l 2
 371.134765625 749.412109375 391.82421875 770.1015625 417.525390625 770.1015625 c 2
102.0625 640.205078125 m 2
 194.845703125 640.205078125 l 2
 220.546875 640.205078125 241.236328125 619.515625 241.236328125 593.814453125 c 2
 241.236328125 565.978515625 l 2
 241.236328125 540.27734375 220.546875 519.587890625 194.845703125 519.587890625 c 2
 102.0625 519.587890625 l 2
 76.361328125 519.587890625 55.669921875 540.27734375 55.669921875 565.978515625 c 2
 55.669921875 593.814453125 l 2
 55.669921875 619.515625 76.361328125 640.205078125 102.0625 640.205078125 c 2
352.578125 640.205078125 m 2
 445.361328125 640.205078125 l 2
 471.0625 640.205078125 491.751953125 619.515625 491.751953125 593.814453125 c 2
 491.751953125 565.978515625 l 2
 491.751953125 540.27734375 471.0625 519.587890625 445.361328125 519.587890625 c 2
 352.578125 519.587890625 l 2
 326.876953125 519.587890625 306.185546875 540.27734375 306.185546875 565.978515625 c 2
 306.185546875 593.814453125 l 2
 306.185546875 619.515625 326.876953125 640.205078125 352.578125 640.205078125 c 2
185.56640625 510.30859375 m 2
 371.1328125 510.30859375 l 2
 396.833984375 510.30859375 417.525390625 489.6171875 417.525390625 463.916015625 c 2
 417.525390625 436.08203125 l 2
 417.525390625 410.380859375 396.833984375 389.689453125 371.1328125 389.689453125 c 2
 185.56640625 389.689453125 l 2
 159.865234375 389.689453125 139.173828125 410.380859375 139.173828125 436.08203125 c 2
 139.173828125 463.916015625 l 2
 139.173828125 489.6171875 159.865234375 510.30859375 185.56640625 510.30859375 c 2
185.56640625 380.412109375 m 2
 371.1328125 380.412109375 l 2
 396.833984375 380.412109375 417.525390625 359.720703125 417.525390625 334.01953125 c 2
 417.525390625 306.185546875 l 2
 417.525390625 280.484375 396.833984375 259.79296875 371.1328125 259.79296875 c 2
 185.56640625 259.79296875 l 2
 159.865234375 259.79296875 139.173828125 280.484375 139.173828125 306.185546875 c 2
 139.173828125 334.01953125 l 2
 139.173828125 359.720703125 159.865234375 380.412109375 185.56640625 380.412109375 c 2
111.33984375 250.515625 m 2
 204.123046875 250.515625 l 2
 229.82421875 250.515625 250.515625 229.82421875 250.515625 204.123046875 c 2
 250.515625 176.2890625 l 2
 250.515625 150.587890625 229.82421875 129.896484375 204.123046875 129.896484375 c 2
 111.33984375 129.896484375 l 2
 85.638671875 129.896484375 64.94921875 150.587890625 64.94921875 176.2890625 c 2
 64.94921875 204.123046875 l 2
 64.94921875 229.82421875 85.638671875 250.515625 111.33984375 250.515625 c 2
352.578125 250.515625 m 2
 445.361328125 250.515625 l 2
 471.0625 250.515625 491.751953125 229.82421875 491.751953125 204.123046875 c 2
 491.751953125 176.2890625 l 2
 491.751953125 150.587890625 471.0625 129.896484375 445.361328125 129.896484375 c 2
 352.578125 129.896484375 l 2
 326.876953125 129.896484375 306.185546875 150.587890625 306.185546875 176.2890625 c 2
 306.185546875 204.123046875 l 2
 306.185546875 229.82421875 326.876953125 250.515625 352.578125 250.515625 c 2
46.392578125 120.6171875 m 2
 139.17578125 120.6171875 l 2
 164.876953125 120.6171875 185.568359375 99.927734375 185.568359375 74.2265625 c 2
 185.568359375 46.390625 l 2
 185.568359375 20.689453125 164.876953125 0 139.17578125 0 c 2
 46.392578125 0 l 2
 20.69140625 0 0 20.689453125 0 46.390625 c 2
 0 74.2265625 l 2
 0 99.927734375 20.69140625 120.6171875 46.392578125 120.6171875 c 2
417.525390625 120.6171875 m 2
 510.30859375 120.6171875 l 2
 536.009765625 120.6171875 556.701171875 99.927734375 556.701171875 74.2265625 c 2
 556.701171875 46.390625 l 2
 556.701171875 20.689453125 536.009765625 0 510.30859375 0 c 2
 417.525390625 0 l 2
 391.82421875 0 371.134765625 20.689453125 371.134765625 46.390625 c 2
 371.134765625 74.2265625 l 2
 371.134765625 99.927734375 391.82421875 120.6171875 417.525390625 120.6171875 c 2
EndSplineSet
EndChar

StartChar: Y
Encoding: 89 89 24
Width: 677
Flags: HW
LayerCount: 2
Fore
SplineSet
46.392578125 770.103515625 m 2
 139.17578125 770.103515625 l 2
 164.876953125 770.103515625 185.568359375 749.412109375 185.568359375 723.7109375 c 2
 185.568359375 695.876953125 l 2
 185.568359375 670.17578125 164.876953125 649.484375 139.17578125 649.484375 c 2
 46.392578125 649.484375 l 2
 20.69140625 649.484375 0 670.17578125 0 695.876953125 c 2
 0 723.7109375 l 2
 0 749.412109375 20.69140625 770.103515625 46.392578125 770.103515625 c 2
482.474609375 770.103515625 m 2
 575.2578125 770.103515625 l 2
 600.958984375 770.103515625 621.650390625 749.412109375 621.650390625 723.7109375 c 2
 621.650390625 695.876953125 l 2
 621.650390625 670.17578125 600.958984375 649.484375 575.2578125 649.484375 c 2
 482.474609375 649.484375 l 2
 456.7734375 649.484375 436.08203125 670.17578125 436.08203125 695.876953125 c 2
 436.08203125 723.7109375 l 2
 436.08203125 749.412109375 456.7734375 770.103515625 482.474609375 770.103515625 c 2
120.619140625 640.20703125 m 2
 213.40234375 640.20703125 l 2
 239.103515625 640.20703125 259.794921875 619.515625 259.794921875 593.814453125 c 2
 259.794921875 565.98046875 l 2
 259.794921875 540.279296875 239.103515625 519.587890625 213.40234375 519.587890625 c 2
 120.619140625 519.587890625 l 2
 94.91796875 519.587890625 74.2265625 540.279296875 74.2265625 565.98046875 c 2
 74.2265625 593.814453125 l 2
 74.2265625 619.515625 94.91796875 640.20703125 120.619140625 640.20703125 c 2
417.52734375 640.20703125 m 2
 510.310546875 640.20703125 l 2
 536.01171875 640.20703125 556.701171875 619.515625 556.701171875 593.814453125 c 2
 556.701171875 565.98046875 l 2
 556.701171875 540.279296875 536.01171875 519.587890625 510.310546875 519.587890625 c 2
 417.52734375 519.587890625 l 2
 391.826171875 519.587890625 371.134765625 540.279296875 371.134765625 565.98046875 c 2
 371.134765625 593.814453125 l 2
 371.134765625 619.515625 391.826171875 640.20703125 417.52734375 640.20703125 c 2
213.404296875 510.310546875 m 2
 417.52734375 510.310546875 l 2
 443.228515625 510.310546875 463.91796875 489.619140625 463.91796875 463.91796875 c 2
 463.91796875 436.08203125 l 2
 463.91796875 410.380859375 443.228515625 389.69140625 417.52734375 389.69140625 c 2
 213.404296875 389.69140625 l 2
 187.703125 389.69140625 167.01171875 410.380859375 167.01171875 436.08203125 c 2
 167.01171875 463.91796875 l 2
 167.01171875 489.619140625 187.703125 510.310546875 213.404296875 510.310546875 c 2
269.07421875 380.412109375 m 2
 361.857421875 380.412109375 l 2
 387.55859375 380.412109375 408.248046875 359.72265625 408.248046875 334.021484375 c 2
 408.248046875 306.185546875 l 2
 408.248046875 280.484375 387.55859375 259.794921875 361.857421875 259.794921875 c 2
 269.07421875 259.794921875 l 2
 243.373046875 259.794921875 222.681640625 280.484375 222.681640625 306.185546875 c 2
 222.681640625 334.021484375 l 2
 222.681640625 359.72265625 243.373046875 380.412109375 269.07421875 380.412109375 c 2
269.07421875 250.515625 m 2
 361.857421875 250.515625 l 2
 387.55859375 250.515625 408.248046875 229.826171875 408.248046875 204.125 c 2
 408.248046875 176.2890625 l 2
 408.248046875 150.587890625 387.55859375 129.896484375 361.857421875 129.896484375 c 2
 269.07421875 129.896484375 l 2
 243.373046875 129.896484375 222.681640625 150.587890625 222.681640625 176.2890625 c 2
 222.681640625 204.125 l 2
 222.681640625 229.826171875 243.373046875 250.515625 269.07421875 250.515625 c 2
269.07421875 120.619140625 m 2
 361.857421875 120.619140625 l 2
 387.55859375 120.619140625 408.248046875 99.927734375 408.248046875 74.2265625 c 2
 408.248046875 46.392578125 l 2
 408.248046875 20.69140625 387.55859375 0 361.857421875 0 c 2
 269.07421875 0 l 2
 243.373046875 0 222.681640625 20.69140625 222.681640625 46.392578125 c 2
 222.681640625 74.2265625 l 2
 222.681640625 99.927734375 243.373046875 120.619140625 269.07421875 120.619140625 c 2
EndSplineSet
EndChar

StartChar: Z
Encoding: 90 90 25
Width: 640
Flags: HW
LayerCount: 2
Fore
SplineSet
46.392578125 770.103515625 m 2
 510.30859375 770.103515625 l 2
 536.009765625 770.103515625 556.702148438 749.412109375 556.702148438 723.7109375 c 2
 556.702148438 695.875 l 2
 556.702148438 670.173828125 536.009765625 649.484375 510.30859375 649.484375 c 2
 46.392578125 649.484375 l 2
 20.6923828125 649.484375 0 670.173828125 0 695.875 c 2
 0 723.7109375 l 2
 0 749.412109375 20.6923828125 770.103515625 46.392578125 770.103515625 c 2
417.526367188 640.205078125 m 2
 510.30859375 640.205078125 l 2
 536.009765625 640.205078125 556.702148438 619.515625 556.702148438 593.814453125 c 2
 556.702148438 565.978515625 l 2
 556.702148438 540.27734375 536.009765625 519.587890625 510.30859375 519.587890625 c 2
 417.526367188 519.587890625 l 2
 391.825195312 519.587890625 371.134765625 540.27734375 371.134765625 565.978515625 c 2
 371.134765625 593.814453125 l 2
 371.134765625 619.515625 391.825195312 640.205078125 417.526367188 640.205078125 c 2
259.79296875 510.30859375 m 2
 417.526367188 510.30859375 l 2
 443.2265625 510.30859375 463.91796875 489.6171875 463.91796875 463.916015625 c 2
 463.91796875 436.08203125 l 2
 463.91796875 410.380859375 443.2265625 389.689453125 417.526367188 389.689453125 c 2
 259.79296875 389.689453125 l 2
 234.091796875 389.689453125 213.403320312 410.380859375 213.403320312 436.08203125 c 2
 213.403320312 463.916015625 l 2
 213.403320312 489.6171875 234.091796875 510.30859375 259.79296875 510.30859375 c 2
139.17578125 380.412109375 m 2
 296.907226562 380.412109375 l 2
 322.608398438 380.412109375 343.298828125 359.720703125 343.298828125 334.01953125 c 2
 343.298828125 306.185546875 l 2
 343.298828125 280.484375 322.608398438 259.79296875 296.907226562 259.79296875 c 2
 139.17578125 259.79296875 l 2
 113.474609375 259.79296875 92.7841796875 280.484375 92.7841796875 306.185546875 c 2
 92.7841796875 334.01953125 l 2
 92.7841796875 359.720703125 113.474609375 380.412109375 139.17578125 380.412109375 c 2
46.390625 250.515625 m 2
 139.173828125 250.515625 l 2
 164.875 250.515625 185.567382812 229.82421875 185.567382812 204.123046875 c 2
 185.567382812 176.2890625 l 2
 185.567382812 150.587890625 164.875 129.896484375 139.173828125 129.896484375 c 2
 46.390625 129.896484375 l 2
 20.6904296875 129.896484375 0 150.587890625 0 176.2890625 c 2
 0 204.123046875 l 2
 0 229.82421875 20.6904296875 250.515625 46.390625 250.515625 c 2
46.390625 120.6171875 m 2
 510.306640625 120.6171875 l 2
 536.0078125 120.6171875 556.700195312 99.927734375 556.700195312 74.2265625 c 2
 556.700195312 46.390625 l 2
 556.700195312 20.689453125 536.0078125 0 510.306640625 0 c 2
 46.390625 0 l 2
 20.6904296875 0 -0.001953125 20.689453125 -0.001953125 46.390625 c 2
 -0.001953125 74.2265625 l 2
 -0.001953125 99.927734375 20.6904296875 120.6171875 46.390625 120.6171875 c 2
EndSplineSet
EndChar
